# 3ds Max Wavefront OBJ Exporter v0.99 - (c)2007 guruware
# File Created: 25.03.2025 21:13:45

mtllib cubo_exportado.mtl

#
# object Box001
#

v  -4.3280 0.0000 3.6277
v  -4.3280 0.0000 -6.3723
v  5.6720 0.0000 -6.3723
v  5.6720 0.0000 3.6277
v  -4.3280 10.0000 3.6277
v  5.6720 10.0000 3.6277
v  5.6720 10.0000 -6.3723
v  -4.3280 10.0000 -6.3723
# 8 vertices

vn -0.5774 -0.5774 0.5774
vn -0.5774 -0.5774 -0.5774
vn 0.5774 -0.5774 -0.5774
vn 0.5774 -0.5774 0.5774
vn -0.5774 0.5774 0.5774
vn 0.5774 0.5774 0.5774
vn 0.5774 0.5774 -0.5774
vn -0.5774 0.5774 -0.5774
# 8 vertex normals

vt 0.7456 0.3373 0.0000
vt 0.7456 0.6603 0.0000
vt 0.4947 0.6603 0.0000
vt 0.4947 0.3373 0.0000
vt 0.2526 0.3435 0.0000
vt 0.4936 0.3435 0.0000
vt 0.4936 0.6595 0.0000
vt 0.2526 0.6595 0.0000
vt 0.4939 0.0055 0.0000
vt 0.7483 0.0055 0.0000
vt 0.7483 0.3324 0.0000
vt 0.4939 0.3324 0.0000
vt 0.7492 0.3351 0.0000
vt 0.9979 0.3351 0.0000
vt 0.9979 0.6626 0.0000
vt 0.7492 0.6626 0.0000
vt 0.5017 0.6640 0.0000
vt 0.7495 0.6640 0.0000
vt 0.7495 0.9871 0.0000
vt 0.5017 0.9871 0.0000
vt 0.0018 0.3418 0.0000
vt 0.2458 0.3418 0.0000
vt 0.2458 0.6622 0.0000
vt 0.0018 0.6622 0.0000
# 24 texture coords

o Box001
g Box001
usemtl 03___Default
s 2
f 1/1/1 2/2/2 3/3/3 4/4/4 
s 4
f 5/5/5 6/6/6 7/7/7 8/8/8 
s 8
f 1/9/1 4/10/4 6/11/6 5/12/5 
s 16
f 4/13/4 3/14/3 7/15/7 6/16/6 
s 32
f 3/17/3 2/18/2 8/19/8 7/20/7 
s 64
f 2/21/2 1/22/1 5/23/5 8/24/8 
# 6 polygons

