# 3ds Max Wavefront OBJ Exporter v0.99 - (c)2007 guruware
# File Created: 29.03.2025 21:07:52

mtllib frontal_texturizado.mtl

#
# object Front_Window
#

v  1.5554 2.3397 16.1091
v  3.0794 4.3727 14.6546
v  1.5684 2.5186 14.6647
v  3.4829 5.1781 10.7004
v  3.5647 5.3456 6.9336
v  1.5172 3.2464 6.9411
v  1.5420 2.9510 10.7136
v  1.4953 3.3007 3.6543
v  3.6488 5.5122 3.6399
v  3.6306 5.5297 -0.0396
v  1.4710 3.3312 -0.0253
v  -0.4693 -0.5052 17.1632
v  -0.4886 -0.2869 14.6777
v  -2.1458 -3.1906 14.6882
v  -2.2115 -3.5392 17.5574
v  -3.2271 -5.2010 14.6951
v  -3.4402 -5.5140 17.2770
v  -2.9704 -4.5505 10.6882
v  -2.1108 -3.0162 10.7366
v  -2.1063 -2.8381 6.9713
v  -2.7676 -4.2478 6.9755
v  -2.0983 -2.7160 3.6778
v  -2.6966 -4.0947 3.6817
v  -0.5153 -0.0694 10.7265
v  -0.5405 0.0614 6.9612
v  -0.5625 0.1927 3.6680
v  -0.5871 0.1925 -0.0116
v  -2.0598 -2.7165 -0.0018
v  -2.6507 -4.2533 0.0021
v  1.3407 2.3397 -16.1593
v  1.3729 2.5187 -14.7152
v  2.8840 4.3727 -14.7252
v  3.4719 5.3456 -7.0113
v  3.3400 5.1781 -10.7768
v  1.3992 2.9510 -10.7641
v  1.4245 3.2464 -6.9917
v  3.5998 5.5122 -3.7191
v  1.4464 3.3007 -3.7048
v  -0.6978 -0.5052 -17.1863
v  -0.6840 -0.2869 -14.7010
v  -2.4451 -3.5392 -17.5574
v  -2.3413 -3.1906 -14.6894
v  -3.6700 -5.5140 -17.2607
v  -3.4226 -5.2010 -14.6819
v  -3.1126 -4.5505 -10.6787
v  -2.8603 -4.2478 -6.9690
v  -2.1990 -2.8381 -6.9736
v  -2.2537 -3.0162 -10.7385
v  -2.1472 -2.7160 -3.6805
v  -2.7455 -4.0947 -3.6764
v  -0.6582 -0.0694 -10.7497
v  -0.6333 0.0614 -6.9843
v  -0.6114 0.1927 -3.6911
v  1.5918 2.5005 14.6626
v  3.1021 4.3536 14.6526
v  1.5789 2.3218 16.1070
v  3.5860 5.3248 6.9331
v  3.5051 5.1582 10.6990
v  1.5655 2.9328 10.7119
v  1.5403 3.2280 6.9404
v  1.5186 3.2821 3.6539
v  1.4940 3.3126 -0.0254
v  3.6518 5.5089 -0.0398
v  3.6700 5.4915 3.6395
v  -0.4637 -0.3031 14.6763
v  -0.4444 -0.5213 17.1615
v  -2.1859 -3.5541 17.5566
v  -2.1199 -3.2049 14.6873
v  -3.2013 -5.2154 14.6945
v  -3.4151 -5.5297 17.2772
v  -2.7408 -4.2607 6.9752
v  -2.0798 -2.8513 6.9709
v  -2.0848 -3.0303 10.7363
v  -2.9445 -4.5649 10.6881
v  -2.0715 -2.7289 3.6777
v  -2.6693 -4.1065 3.6817
v  -0.4900 -0.0848 10.7256
v  -0.5151 0.0462 6.9604
v  -0.5369 0.1776 3.6675
v  -0.5614 0.1776 -0.0118
v  -2.0328 -2.7289 -0.0020
v  -2.6230 -4.2640 0.0019
v  2.9067 4.3536 -14.7236
v  1.3963 2.5005 -14.7135
v  1.3642 2.3218 -16.1576
v  1.4477 3.2281 -6.9913
v  1.4226 2.9328 -10.7628
v  3.3622 5.1584 -10.7757
v  3.4932 5.3248 -7.0112
v  1.4696 3.2821 -3.7048
v  3.6211 5.4915 -3.7190
v  -0.6591 -0.3031 -14.6999
v  -0.6728 -0.5213 -17.1851
v  -2.3154 -3.2049 -14.6888
v  -2.4194 -3.5541 -17.5570
v  -3.3967 -5.2154 -14.6816
v  -3.6448 -5.5297 -17.2612
v  -2.8335 -4.2607 -6.9691
v  -3.0866 -4.5649 -10.6789
v  -2.2276 -3.0303 -10.7385
v  -2.1725 -2.8513 -6.9735
v  -2.1204 -2.7289 -3.6808
v  -2.7183 -4.1065 -3.6768
v  -0.6329 -0.0848 -10.7491
v  -0.6078 0.0462 -6.9839
v  -0.5858 0.1776 -3.6910
# 106 vertices

vn -0.4023 0.6065 0.6858
vn -0.3875 0.6382 0.6652
vn -0.3988 0.6112 0.6837
vn -0.3916 0.6660 0.6349
vn -0.4006 0.6980 0.5935
vn -0.4318 0.6221 0.6532
vn -0.4111 0.6113 0.6762
vn -0.4391 0.6262 0.6443
vn -0.4031 0.6983 0.5915
vn -0.4084 0.7008 0.5849
vn -0.4459 0.6271 0.6387
vn -0.4409 0.5395 0.7173
vn -0.4458 0.5418 0.7125
vn -0.4808 0.4837 0.7313
vn -0.4768 0.5014 0.7219
vn -0.4887 0.4870 0.7239
vn -0.4953 0.5289 0.6892
vn -0.5010 0.4862 0.7160
vn -0.4978 0.4783 0.7235
vn -0.5038 0.4473 0.7390
vn -0.5155 0.4339 0.7389
vn -0.5191 0.4331 0.7368
vn -0.5325 0.3967 0.7477
vn -0.4692 0.5198 0.7139
vn -0.4778 0.5106 0.7149
vn -0.4867 0.5099 0.7094
vn -0.4952 0.5018 0.7093
vn -0.5210 0.4144 0.7462
vn -0.5343 0.3589 0.7653
vn -0.5052 0.6065 0.6140
vn -0.5044 0.6112 0.6099
vn -0.4910 0.6382 0.5930
vn -0.4191 0.6980 0.5806
vn -0.4610 0.6660 0.5864
vn -0.4932 0.6113 0.6190
vn -0.4644 0.6221 0.6304
vn -0.4164 0.6983 0.5822
vn -0.4535 0.6262 0.6342
vn -0.5215 0.5395 0.6611
vn -0.5153 0.5418 0.6640
vn -0.5134 0.5014 0.6964
vn -0.5208 0.4837 0.7034
vn -0.4763 0.5289 0.7024
vn -0.5111 0.4870 0.7082
vn -0.4995 0.4862 0.7171
vn -0.5160 0.4339 0.7386
vn -0.5201 0.4473 0.7276
vn -0.5077 0.4783 0.7166
vn -0.5128 0.4331 0.7412
vn -0.5184 0.3967 0.7576
vn -0.5084 0.5198 0.6865
vn -0.5065 0.5106 0.6948
vn -0.4982 0.5099 0.7013
vn 0.3987 -0.6112 -0.6837
vn 0.3875 -0.6382 -0.6652
vn 0.4023 -0.6065 -0.6858
vn 0.4006 -0.6981 -0.5935
vn 0.3916 -0.6660 -0.6348
vn 0.4111 -0.6113 -0.6762
vn 0.4318 -0.6221 -0.6531
vn 0.4391 -0.6262 -0.6443
vn 0.4459 -0.6271 -0.6387
vn 0.4083 -0.7008 -0.5849
vn 0.4030 -0.6984 -0.5915
vn 0.4458 -0.5418 -0.7125
vn 0.4409 -0.5395 -0.7173
vn 0.4768 -0.5014 -0.7219
vn 0.4808 -0.4837 -0.7313
vn 0.4887 -0.4870 -0.7239
vn 0.4953 -0.5289 -0.6892
vn 0.5155 -0.4339 -0.7389
vn 0.5038 -0.4473 -0.7390
vn 0.4978 -0.4783 -0.7235
vn 0.5010 -0.4862 -0.7160
vn 0.5191 -0.4331 -0.7369
vn 0.5325 -0.3967 -0.7477
vn 0.4692 -0.5198 -0.7139
vn 0.4778 -0.5106 -0.7149
vn 0.4867 -0.5098 -0.7094
vn 0.4952 -0.5017 -0.7093
vn 0.5210 -0.4144 -0.7462
vn 0.5343 -0.3589 -0.7653
vn 0.4910 -0.6382 -0.5930
vn 0.5044 -0.6112 -0.6099
vn 0.5052 -0.6065 -0.6140
vn 0.4644 -0.6221 -0.6304
vn 0.4932 -0.6113 -0.6190
vn 0.4610 -0.6660 -0.5864
vn 0.4191 -0.6981 -0.5805
vn 0.4535 -0.6262 -0.6342
vn 0.4164 -0.6984 -0.5822
vn 0.5153 -0.5418 -0.6640
vn 0.5215 -0.5395 -0.6611
vn 0.5208 -0.4837 -0.7034
vn 0.5134 -0.5014 -0.6964
vn 0.5111 -0.4870 -0.7082
vn 0.4763 -0.5289 -0.7024
vn 0.5160 -0.4339 -0.7386
vn 0.4995 -0.4862 -0.7171
vn 0.5077 -0.4783 -0.7166
vn 0.5201 -0.4473 -0.7276
vn 0.5128 -0.4331 -0.7412
vn 0.5184 -0.3967 -0.7576
vn 0.5084 -0.5198 -0.6865
vn 0.5065 -0.5106 -0.6949
vn 0.4982 -0.5098 -0.7013
vn 0.9154 0.2763 0.2927
vn 0.9155 0.2768 0.2921
vn 0.9164 0.3456 0.2021
vn 0.9163 0.3457 0.2022
vn 0.4443 0.7145 -0.5405
vn 0.4443 0.7145 -0.5404
vn 0.4922 0.7346 -0.4670
vn 0.4913 0.7347 -0.4678
vn 0.4256 0.7152 -0.5544
vn 0.4012 0.7133 -0.5746
vn 0.5437 0.7409 -0.3943
vn 0.5437 0.7408 -0.3944
vn 0.8871 0.1402 0.4399
vn 0.8873 0.1410 0.4392
vn 0.8290 -0.0168 0.5590
vn 0.8283 -0.0183 0.5600
vn -0.4079 -0.8610 0.3038
vn -0.4082 -0.8609 0.3037
vn -0.4207 -0.8401 0.3424
vn -0.4206 -0.8403 0.3422
vn 0.7708 -0.0985 0.6295
vn 0.7709 -0.0986 0.6293
vn -0.3108 -0.8982 0.3109
vn -0.3883 -0.8656 0.3161
vn -0.3882 -0.8657 0.3160
vn -0.3109 -0.8983 0.3105
vn -0.2364 -0.9180 0.3186
vn -0.2359 -0.9179 0.3191
vn -0.2054 -0.9333 0.2944
vn -0.5057 0.3455 -0.7905
vn -0.5897 0.2769 -0.7586
vn -0.5902 0.2762 -0.7586
vn -0.5057 0.3454 -0.7906
vn 0.3541 0.7145 -0.6034
vn 0.2698 0.7348 -0.6223
vn 0.2689 0.7345 -0.6230
vn 0.3541 0.7144 -0.6035
vn 0.3738 0.7152 -0.5906
vn 0.1830 0.7410 -0.6461
vn 0.1831 0.7409 -0.6462
vn -0.7181 0.1411 -0.6815
vn -0.7185 0.1401 -0.6812
vn -0.8106 -0.0167 -0.5853
vn -0.8110 -0.0186 -0.5847
vn -0.8564 -0.0981 -0.5069
vn -0.8563 -0.0983 -0.5071
vn -0.1767 -0.8403 0.5125
vn -0.1442 -0.8609 0.4879
vn -0.1445 -0.8609 0.4879
vn -0.1769 -0.8402 0.5127
vn -0.1632 -0.8657 0.4733
vn -0.1630 -0.8657 0.4732
vn -0.1846 -0.8983 0.3987
vn -0.1844 -0.8982 0.3991
vn -0.2177 -0.9179 0.3319
vn -0.2182 -0.9180 0.3313
# 162 vertex normals

vt 0.7555 0.6445 0.0000
vt 0.7326 0.6762 0.0000
vt 0.7328 0.6473 0.0000
vt 0.6704 0.6888 0.0000
vt 0.6112 0.6914 0.0000
vt 0.6113 0.6587 0.0000
vt 0.6706 0.6541 0.0000
vt 0.5596 0.6595 0.0000
vt 0.5594 0.6940 0.0000
vt 0.5015 0.6943 0.0000
vt 0.5017 0.6600 0.0000
vt 0.7720 0.6001 0.0000
vt 0.7330 0.6035 0.0000
vt 0.7331 0.5582 0.0000
vt 0.7782 0.5528 0.0000
vt 0.7332 0.5269 0.0000
vt 0.7738 0.5220 0.0000
vt 0.6702 0.5370 0.0000
vt 0.6710 0.5610 0.0000
vt 0.6118 0.5637 0.0000
vt 0.6118 0.5418 0.0000
vt 0.5600 0.5656 0.0000
vt 0.5600 0.5441 0.0000
vt 0.6708 0.6069 0.0000
vt 0.6116 0.6090 0.0000
vt 0.5598 0.6110 0.0000
vt 0.5019 0.6110 0.0000
vt 0.5021 0.5656 0.0000
vt 0.4969 0.4805 0.0000
vt 0.2519 0.6393 0.0000
vt 0.2746 0.6421 0.0000
vt 0.2705 0.6762 0.0000
vt 0.3919 0.6914 0.0000
vt 0.3326 0.6888 0.0000
vt 0.3367 0.6489 0.0000
vt 0.3961 0.6535 0.0000
vt 0.4436 0.6940 0.0000
vt 0.4439 0.6595 0.0000
vt 0.2357 0.5949 0.0000
vt 0.2748 0.5983 0.0000
vt 0.2312 0.5476 0.0000
vt 0.2763 0.5530 0.0000
vt 0.2359 0.5168 0.0000
vt 0.2764 0.5217 0.0000
vt 0.3381 0.5318 0.0000
vt 0.3964 0.5365 0.0000
vt 0.3963 0.5585 0.0000
vt 0.3371 0.5558 0.0000
vt 0.4442 0.5656 0.0000
vt 0.4443 0.5441 0.0000
vt 0.3370 0.6017 0.0000
vt 0.3962 0.6038 0.0000
vt 0.4441 0.6110 0.0000
vt 0.7981 0.1366 0.0000
vt 0.7456 0.1368 0.0000
vt 0.8031 0.0957 0.0000
vt 0.7181 0.3553 0.0000
vt 0.7228 0.2487 0.0000
vt 0.7858 0.2484 0.0000
vt 0.7775 0.3551 0.0000
vt 0.7759 0.4481 0.0000
vt 0.7751 0.5523 0.0000
vt 0.7129 0.5527 0.0000
vt 0.7134 0.4486 0.0000
vt 0.8774 0.1362 0.0000
vt 0.8836 0.0658 0.0000
vt 0.9694 0.0546 0.0000
vt 0.9596 0.1359 0.0000
vt 1.0165 0.1357 0.0000
vt 1.0254 0.0626 0.0000
vt 0.9894 0.3541 0.0000
vt 0.9495 0.3543 0.0000
vt 0.9546 0.2477 0.0000
vt 0.9980 0.2491 0.0000
vt 0.9461 0.4475 0.0000
vt 0.9851 0.4474 0.0000
vt 0.8712 0.2480 0.0000
vt 0.8675 0.3546 0.0000
vt 0.8638 0.4478 0.0000
vt 0.8638 0.5519 0.0000
vt 0.9461 0.5516 0.0000
vt 0.9895 0.5515 0.0000
vt 0.7456 0.9683 0.0000
vt 0.7981 0.9680 0.0000
vt 0.8031 1.0089 0.0000
vt 0.7775 0.7494 0.0000
vt 0.7858 0.8562 0.0000
vt 0.7228 0.8566 0.0000
vt 0.7181 0.7500 0.0000
vt 0.7759 0.6564 0.0000
vt 0.7134 0.6568 0.0000
vt 0.8774 0.9676 0.0000
vt 0.8836 1.0380 0.0000
vt 0.9596 0.9673 0.0000
vt 0.9694 1.0485 0.0000
vt 1.0165 0.9671 0.0000
vt 1.0254 1.0401 0.0000
vt 0.9894 0.7488 0.0000
vt 0.9980 0.8538 0.0000
vt 0.9546 0.8555 0.0000
vt 0.9495 0.7489 0.0000
vt 0.9461 0.6557 0.0000
vt 0.9851 0.6556 0.0000
vt 0.8712 0.8558 0.0000
vt 0.8675 0.7492 0.0000
vt 0.8638 0.6560 0.0000
vt 1.0232 0.4657 0.0000
vt 1.0224 0.4657 0.0000
vt 1.0188 0.3939 0.0000
vt 1.0197 0.3939 0.0000
vt 0.5875 0.5341 0.0000
vt 0.5875 0.5337 0.0000
vt 0.6468 0.5325 0.0000
vt 0.6467 0.5328 0.0000
vt 0.5357 0.5354 0.0000
vt 0.4778 0.5351 0.0000
vt 0.4778 0.5348 0.0000
vt 0.5357 0.5350 0.0000
vt 0.7089 0.5262 0.0000
vt 0.7089 0.5265 0.0000
vt 1.0257 0.5645 0.0000
vt 1.0249 0.5645 0.0000
vt 1.0177 0.6632 0.0000
vt 1.0186 0.6633 0.0000
vt 1.0225 0.1277 0.0000
vt 1.0218 0.1277 0.0000
vt 1.0278 0.0546 0.0000
vt 1.0285 0.0547 0.0000
vt 1.0162 0.7290 0.0000
vt 1.0153 0.7290 0.0000
vt 1.0087 0.3462 0.0000
vt 1.0145 0.2411 0.0000
vt 1.0152 0.2411 0.0000
vt 1.0095 0.3462 0.0000
vt 1.0075 0.4395 0.0000
vt 1.0067 0.4395 0.0000
vt 1.0054 0.5436 0.0000
vt 1.0062 0.5436 0.0000
vt 0.5905 0.5326 0.0000
vt 0.6301 0.5265 0.0000
vt 0.6302 0.5270 0.0000
vt 0.5905 0.5331 0.0000
vt 0.3721 0.5274 0.0000
vt 0.3129 0.5254 0.0000
vt 0.3129 0.5250 0.0000
vt 0.3721 0.5271 0.0000
vt 0.4239 0.5294 0.0000
vt 0.4239 0.5291 0.0000
vt 0.2508 0.5183 0.0000
vt 0.2508 0.5179 0.0000
vt 0.6843 0.5167 0.0000
vt 0.6844 0.5171 0.0000
vt 0.7371 0.5016 0.0000
vt 0.7373 0.5020 0.0000
vt 0.7726 0.4927 0.0000
vt 0.7727 0.4931 0.0000
vt 1.0343 1.0322 0.0000
vt 1.0273 0.9592 0.0000
vt 1.0280 0.9592 0.0000
vt 1.0350 1.0322 0.0000
vt 1.0193 0.8459 0.0000
vt 1.0185 0.8459 0.0000
vt 1.0114 0.7409 0.0000
vt 1.0121 0.7409 0.0000
vt 1.0089 0.6477 0.0000
vt 1.0081 0.6477 0.0000
# 166 texture coords

o Front_Window
g Front_Window
usemtl cuerpo_coche_uploads_files_1862674_Beetle___OBJ_wire_143225087
s 128
f 1/1/1 2/2/2 3/3/3 
f 4/4/4 5/5/5 6/6/6 7/7/7 
f 8/8/8 9/9/9 10/10/10 11/11/11 
f 3/3/3 2/2/2 4/4/4 7/7/7 
f 12/12/12 1/1/1 3/3/3 13/13/13 
f 14/14/14 15/15/15 12/12/12 13/13/13 
f 16/16/16 17/17/17 15/15/15 14/14/14 
f 18/18/18 19/19/19 20/20/20 21/21/21 
f 20/20/20 22/22/22 23/23/23 21/21/21 
f 8/8/8 6/6/6 5/5/5 9/9/9 
f 7/7/7 24/24/24 13/13/13 3/3/3 
f 14/14/14 13/13/13 24/24/24 19/19/19 
f 7/7/7 6/6/6 25/25/25 24/24/24 
f 20/20/20 19/19/19 24/24/24 25/25/25 
f 25/25/25 6/6/6 8/8/8 26/26/26 
f 26/26/26 22/22/22 20/20/20 25/25/25 
f 27/27/27 26/26/26 8/8/8 11/11/11 
f 26/26/26 27/27/27 28/28/28 22/22/22 
f 18/18/18 16/16/16 14/14/14 19/19/19 
f 22/22/22 28/28/28 29/29/29 23/23/23 
f 30/30/30 31/31/31 32/32/32 
f 33/33/33 34/34/34 35/35/35 36/36/36 
f 10/10/10 37/37/37 38/38/38 11/11/11 
f 32/32/32 31/31/31 35/35/35 34/34/34 
f 39/39/39 40/40/40 31/31/31 30/30/30 
f 40/40/40 39/39/39 41/41/41 42/42/42 
f 41/41/41 43/43/43 44/44/44 42/42/42 
f 45/45/45 46/46/46 47/47/47 48/48/48 
f 49/49/49 47/47/47 46/46/46 50/50/50 
f 33/33/33 36/36/36 38/38/38 37/37/37 
f 31/31/31 40/40/40 51/51/51 35/35/35 
f 40/40/40 42/42/42 48/48/48 51/51/51 
f 36/36/36 35/35/35 51/51/51 52/52/52 
f 47/47/47 52/52/52 51/51/51 48/48/48 
f 52/52/52 53/53/53 38/38/38 36/36/36 
f 52/52/52 47/47/47 49/49/49 53/53/53 
f 53/53/53 27/27/27 11/11/11 38/38/38 
f 27/27/27 53/53/53 49/49/49 28/28/28 
f 44/44/44 45/45/45 48/48/48 42/42/42 
f 28/28/28 49/49/49 50/50/50 29/29/29 
f 54/54/54 55/55/55 56/56/56 
f 57/57/57 58/58/58 59/59/59 60/60/60 
f 61/61/61 62/62/62 63/63/63 64/64/64 
f 55/55/55 54/54/54 59/59/59 58/58/58 
f 65/65/65 54/54/54 56/56/56 66/66/66 
f 67/67/67 68/68/68 65/65/65 66/66/66 
f 69/69/69 68/68/68 67/67/67 70/70/70 
f 71/71/71 72/72/72 73/73/73 74/74/74 
f 75/75/75 72/72/72 71/71/71 76/76/76 
f 64/64/64 57/57/57 60/60/60 61/61/61 
f 65/65/65 77/77/77 59/59/59 54/54/54 
f 73/73/73 77/77/77 65/65/65 68/68/68 
f 78/78/78 60/60/60 59/59/59 77/77/77 
f 77/77/77 73/73/73 72/72/72 78/78/78 
f 78/78/78 79/79/79 61/61/61 60/60/60 
f 78/78/78 72/72/72 75/75/75 79/79/79 
f 61/61/61 79/79/79 80/80/80 62/62/62 
f 81/81/81 80/80/80 79/79/79 75/75/75 
f 68/68/68 69/69/69 74/74/74 73/73/73 
f 81/81/81 75/75/75 76/76/76 82/82/82 
f 83/83/83 84/84/84 85/85/85 
f 86/86/86 87/87/87 88/88/88 89/89/89 
f 90/90/90 91/91/91 63/63/63 62/62/62 
f 88/88/88 87/87/87 84/84/84 83/83/83 
f 84/84/84 92/92/92 93/93/93 85/85/85 
f 93/93/93 92/92/92 94/94/94 95/95/95 
f 94/94/94 96/96/96 97/97/97 95/95/95 
f 98/98/98 99/99/99 100/100/100 101/101/101 
f 98/98/98 101/101/101 102/102/102 103/103/103 
f 86/86/86 89/89/89 91/91/91 90/90/90 
f 92/92/92 84/84/84 87/87/87 104/104/104 
f 100/100/100 94/94/94 92/92/92 104/104/104 
f 86/86/86 105/105/105 104/104/104 87/87/87 
f 101/101/101 100/100/100 104/104/104 105/105/105 
f 106/106/106 105/105/105 86/86/86 90/90/90 
f 102/102/102 101/101/101 105/105/105 106/106/106 
f 80/80/80 106/106/106 90/90/90 62/62/62 
f 106/106/106 80/80/80 81/81/81 102/102/102 
f 99/99/99 96/96/96 94/94/94 100/100/100 
f 82/82/82 103/103/103 102/102/102 81/81/81 
s 1
f 1/107/107 56/108/108 55/109/109 2/110/110 
s 2
f 57/111/111 5/112/112 4/113/113 58/114/114 
f 64/115/115 63/116/116 10/117/116 9/118/115 
f 4/113/113 2/119/117 55/120/118 58/114/114 
s 1
f 56/108/108 1/107/107 12/121/119 66/122/120 
f 67/123/121 66/122/120 12/121/119 15/124/122 
s 2
f 16/125/123 69/126/124 70/127/125 17/128/126 
s 1
f 17/129/127 70/130/128 67/123/121 15/124/122 
s 2
f 71/131/129 74/132/130 18/133/131 21/134/132 
f 21/134/132 23/135/133 76/136/134 71/131/129 
f 9/118/115 5/112/112 57/111/111 64/115/115 
f 16/125/123 18/133/131 74/132/130 69/126/124 
f 82/137/135 76/136/134 23/135/133 29/138/135 
s 1
f 83/139/136 85/140/137 30/141/138 32/142/139 
s 2
f 89/143/140 88/144/141 34/145/142 33/146/143 
f 91/147/144 37/148/144 10/117/116 63/116/116 
f 34/145/142 88/144/141 83/149/145 32/150/146 
s 1
f 30/141/138 85/140/137 93/151/147 39/152/148 
f 39/152/148 93/151/147 95/153/149 41/154/150 
f 97/155/151 43/156/152 41/154/150 95/153/149 
s 2
f 97/157/153 96/158/154 44/159/155 43/160/156 
f 45/161/157 99/162/158 98/163/159 46/164/160 
f 50/165/161 46/164/160 98/163/159 103/166/162 
f 91/147/144 89/143/140 33/146/143 37/148/144 
f 96/158/154 99/162/158 45/161/157 44/159/155 
f 103/166/162 82/137/135 29/138/135 50/165/161 
# 102 polygons - 4 triangles

