# 3ds Max Wavefront OBJ Exporter v0.99 - (c)2007 guruware
# File Created: 05.04.2025 22:41:39

mtllib lampara.mtl

#
# object StreetLamp1_Short
#

v  -0.9409 110.2362 -0.0507
v  1.1538 110.2362 -0.0525
v  0.8953 110.2362 -1.1058
v  -0.8965 1.1811 -2.1916
v  -0.8965 110.2362 -2.1916
v  0.1449 110.2362 -1.8887
v  0.1449 1.1811 -1.8887
v  0.8509 110.2362 0.9889
v  0.0679 110.2362 1.7394
v  -0.9854 110.2362 1.9978
v  -2.0267 110.2362 1.6949
v  -2.7772 110.2362 0.9120
v  -3.0356 110.2362 -0.1413
v  -2.7328 110.2362 -1.1827
v  -1.9498 110.2362 -1.9332
v  -0.9854 1.1811 1.9978
v  -2.0272 0.7874 3.6385
v  -1.0241 0.7874 3.8243
v  -2.0272 -0.0000 3.6385
v  -1.0241 -0.0000 3.8243
v  -2.0267 1.1811 1.6949
v  -3.7494 0.7874 2.5949
v  -2.9736 0.7874 3.2574
v  -3.7494 -0.0000 2.5949
v  -2.9736 -0.0000 3.2574
v  -2.7772 1.1811 0.9119
v  -4.7191 0.7874 0.8300
v  -4.3784 0.7874 1.7917
v  -4.7191 -0.0000 0.8300
v  -4.3784 -0.0000 1.7917
v  -3.0356 1.1811 -0.1413
v  -4.6764 0.7874 -1.1832
v  -4.8622 0.7874 -0.1801
v  -4.6764 0.0000 -1.1832
v  -4.8622 0.0000 -0.1801
v  -2.7328 1.1811 -1.1827
v  -3.6328 0.7874 -2.9054
v  -4.2952 0.7874 -2.1296
v  -3.6328 0.0000 -2.9054
v  -4.2952 0.0000 -2.1296
v  -1.9498 1.1811 -1.9332
v  -1.8679 0.7874 -3.8751
v  -2.8295 0.7874 -3.5344
v  -1.8679 0.0000 -3.8751
v  -2.8295 0.0000 -3.5344
v  0.1454 0.7874 -3.8324
v  -0.8577 0.7874 -4.0182
v  0.1454 0.0000 -3.8324
v  -0.8577 0.0000 -4.0182
v  1.8676 0.7874 -2.7888
v  1.0917 0.7874 -3.4512
v  1.8676 0.0000 -2.7888
v  1.0917 0.0000 -3.4512
v  0.8953 1.1811 -1.1058
v  2.8372 0.7874 -1.0239
v  2.4966 0.7874 -1.9855
v  2.8372 0.0000 -1.0239
v  2.4966 0.0000 -1.9855
v  1.1538 1.1811 -0.0525
v  2.7945 0.7874 0.9894
v  2.9803 0.7874 -0.0137
v  2.7945 -0.0000 0.9894
v  2.9803 -0.0000 -0.0137
v  0.8509 1.1811 0.9889
v  1.7509 0.7874 2.7116
v  2.4134 0.7874 1.9357
v  1.7509 -0.0000 2.7116
v  2.4134 -0.0000 1.9357
v  0.0679 1.1811 1.7394
v  -0.0140 0.7874 3.6813
v  0.9477 0.7874 3.3406
v  -0.0140 -0.0000 3.6813
v  0.9477 -0.0000 3.3406
v  -0.1535 128.3121 18.8930
v  -0.3841 128.3546 19.4477
v  -0.3841 124.6999 19.5685
v  -0.1535 124.6999 19.0117
v  -0.9409 128.2519 18.1085
v  -0.3841 128.2695 18.3383
v  -0.3841 124.6999 18.4549
v  -0.9409 124.6999 18.2243
v  -1.4977 128.2695 18.3383
v  -1.4977 124.6999 18.4549
v  -1.7283 128.3121 18.8930
v  -1.7283 124.6999 19.0117
v  -1.4977 128.3546 19.4477
v  -1.4977 124.6999 19.5685
v  -0.9409 128.3723 19.6774
v  -0.9409 124.6999 19.7991
v  -1.4977 131.1380 19.1381
v  -1.7283 131.0379 18.5914
v  -0.9409 131.1796 19.3645
v  -0.3841 131.1380 19.1381
v  -0.1535 131.0379 18.5914
v  -0.3841 130.9377 18.0447
v  -0.9409 130.8961 17.8182
v  -1.4977 130.9377 18.0447
v  -1.4977 134.3871 18.3410
v  -1.7283 134.1791 17.8245
v  -0.9409 134.4732 18.5549
v  -0.3841 134.3871 18.3410
v  -0.1535 134.1791 17.8245
v  -0.3841 133.9712 17.3080
v  -0.9409 133.8850 17.0941
v  -1.4977 133.9712 17.3080
v  -1.4977 136.6274 17.1544
v  -1.7283 136.2996 16.7044
v  -0.9409 136.7632 17.3408
v  -0.3841 136.6274 17.1544
v  -0.1535 136.2996 16.7044
v  -0.3841 135.9718 16.2543
v  -0.9409 135.8360 16.0679
v  -1.4977 135.9718 16.2544
v  -1.4977 138.4586 15.3645
v  -1.7283 138.0077 15.0378
v  -0.9409 138.6453 15.4998
v  -0.3841 138.4586 15.3644
v  -0.1535 138.0077 15.0378
v  -0.3841 137.5568 14.7111
v  -0.9409 137.3701 14.5758
v  -1.4977 137.5568 14.7111
v  -1.4977 139.6799 12.8780
v  -1.7283 139.1472 12.7162
v  -0.9409 139.9006 12.9450
v  -0.3841 139.6799 12.8780
v  -0.1535 139.1472 12.7161
v  -0.3841 138.6144 12.5543
v  -0.9409 138.3938 12.4873
v  -1.4977 138.6144 12.5543
v  -1.4977 140.1185 9.6341
v  -1.7283 139.5617 9.6309
v  -0.9409 140.3491 9.6354
v  -0.3841 140.1185 9.6341
v  -0.1535 139.5617 9.6309
v  -0.3841 139.0050 9.6278
v  -0.9409 138.7743 9.6265
v  -1.4977 139.0050 9.6278
v  -1.4977 139.7175 6.3838
v  -1.7283 139.1810 6.5327
v  -0.9409 139.9397 6.3221
v  -0.3841 139.7175 6.3838
v  -0.1535 139.1810 6.5327
v  -0.3841 138.6445 6.6817
v  -0.9409 138.4223 6.7434
v  -1.4977 138.6445 6.6817
v  -1.4977 138.5958 3.8709
v  -1.7283 138.1308 4.1770
v  -0.9409 138.7884 3.7440
v  -0.3841 138.5958 3.8709
v  -0.1535 138.1308 4.1770
v  -0.3841 137.6657 4.4832
v  -0.9409 137.4731 4.6100
v  -1.4977 137.6657 4.4832
v  -1.4977 136.8994 2.0297
v  -1.7283 136.5488 2.4623
v  -0.9409 137.0446 1.8506
v  -0.3841 136.8994 2.0297
v  -0.1535 136.5488 2.4623
v  -0.3841 136.1982 2.8948
v  -0.9409 136.0530 3.0739
v  -1.4977 136.1982 2.8948
v  -1.4977 134.8040 0.7803
v  -1.7283 134.5730 1.2869
v  -0.9409 134.8997 0.5705
v  -0.3841 134.8040 0.7803
v  -0.1535 134.5730 1.2869
v  -0.3841 134.3419 1.7935
v  -0.9409 134.2462 2.0033
v  -1.4977 134.3419 1.7935
v  -1.4977 132.4757 0.0092
v  -1.7283 132.3411 0.5494
v  -0.9409 132.5314 -0.2146
v  -0.3841 132.4756 0.0092
v  -0.1535 132.3411 0.5494
v  -0.3841 132.2066 1.0897
v  -0.9409 132.1508 1.3135
v  -1.4977 132.2066 1.0897
v  -1.4977 130.0578 -0.4044
v  -1.7283 129.9910 0.1484
v  -0.9409 130.0854 -0.6333
v  -0.3841 130.0578 -0.4044
v  -0.1535 129.9910 0.1484
v  -0.3841 129.9243 0.7012
v  -0.9409 129.8967 0.9301
v  -1.4977 129.9243 0.7011
v  -1.4977 127.6846 -0.5741
v  -1.7283 127.6606 -0.0178
v  -0.9409 127.6946 -0.8045
v  -0.3841 127.6846 -0.5741
v  -0.1535 127.6606 -0.0178
v  -0.3841 127.6366 0.5385
v  -0.9409 127.6266 0.7689
v  -1.4977 127.6366 0.5384
v  -0.9409 110.2362 -0.8381
v  -1.4977 110.2362 -0.6074
v  -1.7283 110.2362 -0.0507
v  -1.4977 110.2362 0.5061
v  -0.3841 110.2362 -0.6074
v  -0.9409 110.2362 0.7368
v  -0.3841 110.2362 0.5061
v  -0.1535 110.2362 -0.0506
v  7.9186 112.6911 19.0117
v  2.2289 120.2484 19.0117
v  7.7484 112.6911 20.7401
v  1.9876 120.2484 20.2247
v  7.2442 112.6911 22.4021
v  6.4255 112.6910 23.9338
v  1.3005 120.2484 21.2531
v  5.3237 112.6910 25.2763
v  3.9812 112.6910 26.3781
v  0.2721 120.2484 21.9402
v  2.4495 112.6910 27.1968
v  0.7875 112.6910 27.7010
v  -0.9409 120.2484 22.1815
v  -0.9409 112.6910 27.8712
v  -2.6693 112.6910 27.7010
v  -2.1540 120.2484 21.9402
v  -4.3313 112.6910 27.1968
v  -5.8630 112.6910 26.3781
v  -3.1823 120.2484 21.2531
v  -7.2056 112.6910 25.2763
v  -8.3074 112.6910 23.9338
v  -3.8695 120.2484 20.2247
v  -9.1261 112.6911 22.4021
v  -9.6302 112.6911 20.7401
v  -4.1108 120.2484 19.0117
v  -9.8005 112.6911 19.0117
v  -9.6302 112.6911 17.2833
v  -3.8695 120.2484 17.7986
v  -9.1261 112.6911 15.6213
v  -8.3073 112.6911 14.0896
v  -3.1823 120.2484 16.7702
v  -7.2055 112.6911 12.7470
v  -5.8630 112.6911 11.6452
v  -2.1540 120.2484 16.0831
v  -4.3313 112.6911 10.8265
v  -2.6693 112.6911 10.3224
v  -0.9409 120.2484 15.8418
v  -0.9409 112.6911 10.1521
v  0.7875 112.6911 10.3224
v  0.2721 120.2484 16.0831
v  2.4495 112.6911 10.8265
v  3.9812 112.6911 11.6452
v  1.3005 120.2484 16.7703
v  5.3237 112.6911 12.7470
v  6.4255 112.6911 14.0896
v  1.9876 120.2484 17.7986
v  7.2442 112.6911 15.6213
v  7.7484 112.6911 17.2833
v  1.4688 119.6589 20.6218
v  0.6692 119.6589 21.4213
v  -0.9409 119.6589 19.0117
v  7.4993 112.5292 17.3328
v  7.6647 112.5292 19.0117
v  7.0096 112.5292 15.7185
v  6.2144 112.5292 14.2307
v  5.1442 112.5292 12.9266
v  3.8401 112.5292 11.8564
v  2.3523 112.5292 11.0611
v  0.7380 112.5292 10.5714
v  -0.9409 112.5292 10.4061
v  -2.6198 112.5292 10.5714
v  -4.2341 112.5292 11.0611
v  -5.7219 112.5292 11.8564
v  -7.0260 112.5292 12.9266
v  -8.0962 112.5292 14.2307
v  -8.8914 112.5292 15.7184
v  -9.3812 112.5292 17.3328
v  -9.5465 112.5292 19.0117
v  -9.3812 112.5292 20.6905
v  -8.8914 112.5292 22.3049
v  -8.0962 112.5292 23.7927
v  -7.0260 112.5292 25.0967
v  -5.7219 112.5292 26.1669
v  -4.2341 112.5292 26.9622
v  -2.6198 112.5292 27.4519
v  -0.9409 112.5292 27.6173
v  0.7379 112.5292 27.4519
v  2.3523 112.5292 26.9622
v  3.8401 112.5292 26.1669
v  5.1441 112.5292 25.0967
v  6.2144 112.5292 23.7927
v  7.0096 112.5292 22.3049
v  7.4993 112.5292 20.6905
v  1.9015 119.6589 18.4463
v  1.9015 119.6589 19.5771
v  -0.3755 119.6589 21.8541
v  -1.5063 119.6589 21.8541
v  -2.5510 119.6589 21.4213
v  -3.3506 119.6589 20.6218
v  -3.7833 119.6589 19.5771
v  -3.7833 119.6589 18.4463
v  -3.3506 119.6589 17.4016
v  -2.5510 119.6589 16.6020
v  -1.5063 119.6589 16.1693
v  -0.3755 119.6589 16.1693
v  0.6692 119.6589 16.6020
v  1.4688 119.6589 17.4016
v  -1.8316 124.7000 16.8615
v  -0.9409 124.7000 16.6843
v  1.3864 124.7000 19.0117
v  1.2093 124.7000 19.9023
v  -3.0911 124.7000 18.1210
v  -2.5866 124.7000 17.3660
v  -3.0911 124.7000 19.9023
v  -3.2683 124.7000 19.0117
v  -1.8316 124.7000 21.1619
v  -2.5866 124.7000 20.6574
v  0.7048 124.7000 17.3660
v  1.2093 124.7000 18.1210
v  -0.0503 124.7000 21.1619
v  -0.9409 124.7000 21.3390
v  -0.0503 124.7000 16.8615
v  0.7048 124.7000 20.6574
v  -0.9409 124.7000 19.0117
v  -2.0675 114.0560 20.5272
v  -1.2980 114.0560 20.8977
v  -1.3730 114.9477 21.2264
v  -2.2776 114.9477 20.7907
v  0.1918 119.4008 19.0269
v  0.1918 119.6573 19.0269
v  0.0866 119.6573 19.4880
v  0.0866 119.4008 19.4880
v  -0.2083 119.6573 19.8578
v  -0.2083 119.4008 19.8578
v  -2.5999 114.0560 19.8595
v  -2.9036 114.9477 20.0057
v  -0.6345 119.6573 20.0630
v  -0.6345 119.4008 20.0630
v  -2.7900 114.0560 19.0269
v  -3.1270 114.9477 19.0269
v  -1.1075 119.6573 20.0630
v  -1.1075 119.4008 20.0630
v  -2.5999 114.0560 18.1943
v  -2.9036 114.9477 18.0480
v  -1.5337 119.6573 19.8578
v  -1.5337 119.4008 19.8578
v  -2.0675 114.0560 17.5266
v  -2.2776 114.9477 17.2630
v  -1.8286 119.6573 19.4880
v  -1.8286 119.4008 19.4880
v  -1.2980 114.0560 17.1560
v  -1.3730 114.9477 16.8274
v  -1.9338 119.6573 19.0269
v  -1.9338 119.4008 19.0269
v  -0.4440 114.0560 17.1560
v  -0.3690 114.9477 16.8274
v  -1.8286 119.6573 18.5657
v  -1.8286 119.4008 18.5657
v  0.3255 114.0560 17.5266
v  0.5356 114.9477 17.2630
v  -1.5337 119.6573 18.1959
v  -1.5337 119.4008 18.1959
v  0.8579 114.0560 18.1943
v  1.1616 114.9477 18.0480
v  -1.1075 119.6573 17.9907
v  -1.1075 119.4008 17.9907
v  1.0480 114.0560 19.0269
v  1.3850 114.9477 19.0269
v  -0.6345 119.6573 17.9907
v  -0.6345 119.4008 17.9907
v  -0.2083 119.6573 18.1959
v  -0.2083 119.4008 18.1959
v  -0.4440 114.0560 20.8977
v  0.3255 114.0560 20.5272
v  0.5356 114.9477 20.7907
v  -0.3690 114.9477 21.2264
v  0.0866 119.6573 18.5657
v  0.0866 119.4008 18.5657
v  0.3213 113.4676 19.6010
v  0.4523 113.4676 19.0269
v  0.8579 114.0560 19.8595
v  0.3213 113.4676 18.4527
v  -0.0459 113.4676 17.9923
v  -0.5765 113.4676 17.7367
v  -1.1655 113.4676 17.7367
v  -1.6961 113.4676 17.9923
v  -2.0633 113.4676 18.4527
v  -2.1943 113.4676 19.0269
v  -2.0633 113.4676 19.6010
v  -1.6961 113.4676 20.0615
v  -1.1655 113.4676 20.3170
v  0.3918 118.0734 19.6350
v  0.0029 118.0734 20.1227
v  0.5469 116.0762 20.8049
v  1.1780 116.0762 20.0136
v  -0.5591 118.0734 20.3934
v  -0.3650 116.0762 21.2440
v  -1.1829 118.0734 20.3934
v  -1.3771 116.0762 21.2440
v  -1.7449 118.0734 20.1227
v  -2.2889 116.0762 20.8049
v  -2.1338 118.0734 19.6350
v  -2.9200 116.0762 20.0136
v  -2.2727 118.0734 19.0269
v  -3.1452 116.0762 19.0269
v  -2.1338 118.0734 18.4187
v  -2.9200 116.0762 18.0401
v  -1.7449 118.0734 17.9310
v  -2.2889 116.0762 17.2489
v  -1.1829 118.0734 17.6604
v  -1.3771 116.0762 16.8097
v  -0.5591 118.0734 17.6604
v  -0.3650 116.0762 16.8097
v  0.0029 118.0734 17.9310
v  0.5469 116.0762 17.2489
v  0.3918 118.0734 18.4187
v  1.1780 116.0762 18.0401
v  0.5307 118.0734 19.0269
v  1.4032 116.0762 19.0269
v  -0.5765 113.4676 20.3170
v  -0.0459 113.4676 20.0615
v  0.2839 119.1309 18.4707
v  0.4109 119.1309 19.0269
v  0.2839 119.1309 19.5831
v  -0.0718 119.1309 20.0291
v  -0.5858 119.1309 20.2766
v  -1.1562 119.1309 20.2766
v  -1.6702 119.1309 20.0291
v  -2.0259 119.1309 19.5831
v  -2.1529 119.1309 19.0269
v  -2.0259 119.1309 18.4707
v  -1.6702 119.1309 18.0247
v  -1.1562 119.1309 17.7771
v  -0.5858 119.1309 17.7771
v  -0.0718 119.1309 18.0247
v  1.1616 114.9477 20.0057
v  -0.5213 113.2016 19.4654
v  -0.7462 113.2016 19.5737
v  -0.8710 113.1185 19.0269
v  -0.3657 113.2016 19.2702
v  -0.9958 113.2016 19.5737
v  -1.2207 113.2016 19.4654
v  -1.3763 113.2016 19.2702
v  -1.4318 113.2016 19.0269
v  -1.3763 113.2016 18.7835
v  -1.2207 113.2016 18.5884
v  -0.9958 113.2016 18.4801
v  -0.7462 113.2016 18.4801
v  -0.5213 113.2016 18.5884
v  -0.3657 113.2016 18.7835
v  -0.3102 113.2016 19.0269
# 442 vertices

vn 0.0000 0.0000 -1.0000
vn 0.0000 -0.0000 -1.0000
vn 0.0212 -0.9998 -0.0000
vn 0.5183 -0.8552 -0.0000
vn -0.0098 0.2038 -0.9790
vn -0.0563 0.2028 -0.9776
vn 0.0006 0.2078 -0.9782
vn -0.0212 0.9998 -0.0000
vn -0.2792 0.9602 -0.0000
vn -0.1104 0.1716 -0.9790
vn -0.1501 0.1475 -0.9776
vn -0.1034 0.1803 -0.9782
vn -0.5183 0.8552 -0.0000
vn -0.7219 0.6920 -0.0000
vn -0.1814 0.0934 -0.9790
vn -0.2038 0.0527 -0.9776
vn -0.1797 0.1044 -0.9782
vn -0.8764 0.4815 -0.0000
vn -0.9712 0.2383 -0.0000
vn -0.2038 -0.0098 -0.9790
vn -0.2028 -0.0563 -0.9776
vn -0.2078 0.0006 -0.9782
vn -0.9998 -0.0212 -0.0000
vn -0.9602 -0.2792 -0.0000
vn -0.1716 -0.1104 -0.9790
vn -0.1475 -0.1501 -0.9776
vn -0.1803 -0.1034 -0.9782
vn -0.8552 -0.5183 -0.0000
vn -0.6920 -0.7219 -0.0000
vn -0.0934 -0.1814 -0.9790
vn -0.0527 -0.2038 -0.9776
vn -0.1044 -0.1797 -0.9782
vn -0.4815 -0.8764 -0.0000
vn -0.2383 -0.9712 -0.0000
vn 0.0098 -0.2038 -0.9790
vn 0.0563 -0.2028 -0.9776
vn -0.0006 -0.2078 -0.9782
vn 0.2792 -0.9602 -0.0000
vn 0.1104 -0.1716 -0.9790
vn 0.1501 -0.1475 -0.9776
vn 0.1034 -0.1803 -0.9782
vn 0.7219 -0.6920 -0.0000
vn 0.1814 -0.0934 -0.9790
vn 0.2038 -0.0527 -0.9776
vn 0.1797 -0.1044 -0.9782
vn 0.8764 -0.4815 -0.0000
vn 0.9712 -0.2383 -0.0000
vn 0.2038 0.0098 -0.9790
vn 0.2028 0.0563 -0.9776
vn 0.2078 -0.0006 -0.9782
vn 0.9998 0.0212 -0.0000
vn 0.9602 0.2792 -0.0000
vn 0.1716 0.1104 -0.9790
vn 0.1475 0.1501 -0.9776
vn 0.1803 0.1034 -0.9782
vn 0.8552 0.5183 -0.0000
vn 0.6920 0.7219 -0.0000
vn 0.0934 0.1814 -0.9790
vn 0.0527 0.2038 -0.9776
vn 0.1044 0.1797 -0.9782
vn 0.4815 0.8764 -0.0000
vn 0.2383 0.9712 -0.0000
vn 1.0000 0.0094 -0.0007
vn 0.7021 0.7102 -0.0512
vn 0.7028 0.7110 -0.0235
vn 1.0000 0.0080 -0.0003
vn -0.0000 -0.9975 0.0709
vn 0.7115 -0.7009 0.0500
vn 0.7108 -0.7031 0.0230
vn 0.0000 -0.9995 0.0326
vn -0.7115 -0.7009 0.0500
vn -0.7108 -0.7031 0.0230
vn -1.0000 0.0094 -0.0007
vn -1.0000 0.0080 -0.0003
vn -0.7021 0.7102 -0.0512
vn -0.7028 0.7110 -0.0235
vn 0.0000 0.9974 -0.0720
vn 0.0000 0.9995 -0.0331
vn -0.6986 0.7045 -0.1251
vn -0.9999 0.0155 -0.0028
vn 0.0000 0.9846 -0.1750
vn 0.6986 0.7045 -0.1251
vn 0.9999 0.0155 -0.0028
vn 0.7143 -0.6893 0.1211
vn -0.0000 -0.9850 0.1727
vn -0.7143 -0.6892 0.1211
vn -0.6925 0.6742 -0.2567
vn -0.9995 0.0282 -0.0103
vn 0.0000 0.9343 -0.3566
vn 0.6925 0.6742 -0.2567
vn 0.9996 0.0282 -0.0103
vn 0.7225 -0.6467 0.2446
vn -0.0000 -0.9357 0.3528
vn -0.7225 -0.6467 0.2445
vn -0.6901 0.5845 -0.4268
vn -0.9994 0.0281 -0.0208
vn 0.0000 0.8076 -0.5897
vn 0.6901 0.5845 -0.4268
vn 0.9994 0.0281 -0.0207
vn 0.7250 -0.5571 0.4049
vn -0.0000 -0.8091 0.5876
vn -0.7250 -0.5571 0.4049
vn -0.6874 0.4259 -0.5883
vn -0.9991 0.0243 -0.0336
vn 0.0000 0.5864 -0.8100
vn 0.6874 0.4259 -0.5883
vn 0.9991 0.0243 -0.0336
vn 0.7289 -0.4018 0.5543
vn -0.0000 -0.5871 0.8095
vn -0.7289 -0.4018 0.5543
vn -0.6883 0.2113 -0.6940
vn -0.9992 0.0115 -0.0375
vn 0.0000 0.2913 -0.9566
vn 0.6883 0.2113 -0.6940
vn 0.9992 0.0115 -0.0375
vn 0.7275 -0.1991 0.6566
vn -0.0000 -0.2899 0.9570
vn -0.7275 -0.1991 0.6566
vn -0.6913 0.0042 -0.7225
vn -0.9995 0.0002 -0.0312
vn 0.0000 0.0059 -1.0000
vn 0.6913 0.0042 -0.7225
vn 0.9995 0.0002 -0.0312
vn 0.7224 -0.0038 0.6915
vn -0.0000 -0.0054 1.0000
vn -0.7224 -0.0038 0.6914
vn -0.6895 -0.1941 -0.6977
vn -0.9993 -0.0098 -0.0348
vn 0.0000 -0.2681 -0.9634
vn 0.6895 -0.1941 -0.6977
vn 0.9993 -0.0098 -0.0348
vn 0.7257 0.1838 0.6631
vn -0.0000 0.2669 0.9637
vn -0.7257 0.1838 0.6631
vn -0.6882 -0.3989 -0.6060
vn -0.9992 -0.0218 -0.0331
vn 0.0000 -0.5498 -0.8353
vn 0.6882 -0.3989 -0.6060
vn 0.9992 -0.0218 -0.0331
vn 0.7278 0.3772 0.5727
vn -0.0000 0.5500 0.8352
vn -0.7278 0.3772 0.5727
vn -0.6901 -0.5618 -0.4562
vn -0.9994 -0.0272 -0.0223
vn 0.0000 -0.7762 -0.6305
vn 0.6901 -0.5618 -0.4562
vn 0.9994 -0.0272 -0.0223
vn 0.7252 0.5352 0.4331
vn -0.0000 0.7776 0.6288
vn -0.7252 0.5352 0.4331
vn -0.6940 -0.6548 -0.2994
vn -0.9996 -0.0240 -0.0112
vn 0.0000 -0.9094 -0.4159
vn 0.6940 -0.6548 -0.2994
vn 0.9996 -0.0240 -0.0112
vn 0.7205 0.6312 0.2872
vn -0.0000 0.9103 0.4139
vn -0.7205 0.6312 0.2872
vn -0.6980 -0.6948 -0.1735
vn -0.9998 -0.0177 -0.0045
vn 0.0000 -0.9702 -0.2423
vn 0.6980 -0.6948 -0.1735
vn 0.9998 -0.0177 -0.0045
vn 0.7162 0.6773 0.1683
vn -0.0000 0.9705 0.2410
vn -0.7162 0.6773 0.1683
vn -0.7011 -0.7079 -0.0856
vn -0.9999 -0.0118 -0.0015
vn 0.0000 -0.9928 -0.1202
vn 0.7011 -0.7079 -0.0856
vn 0.9999 -0.0118 -0.0015
vn 0.7130 0.6961 0.0838
vn -0.0000 0.9928 0.1195
vn -0.7130 0.6961 0.0838
vn -0.7029 -0.7108 -0.0261
vn -1.0000 -0.0084 -0.0003
vn 0.0000 -0.9993 -0.0367
vn 0.7029 -0.7108 -0.0261
vn 1.0000 -0.0084 -0.0003
vn 0.7113 0.7024 0.0256
vn -0.0000 0.9993 0.0363
vn -0.7113 0.7024 0.0256
vn 0.0000 -1.0000 -0.0019
vn -0.7068 -0.7074 -0.0014
vn -1.0000 -0.0005 -0.0000
vn -0.7072 0.7070 0.0013
vn 0.7068 -0.7074 -0.0014
vn -0.0000 1.0000 0.0019
vn 0.7072 0.7070 0.0013
vn 1.0000 -0.0005 -0.0000
vn 0.7970 -0.0161 -0.6038
vn 0.7919 0.0387 -0.6094
vn 0.7855 0.1423 -0.6023
vn 0.7168 0.3388 -0.6094
vn 0.7425 0.2901 -0.6038
vn 0.6713 0.4320 -0.6023
vn 0.5326 0.5873 -0.6094
vn 0.5750 0.5521 -0.6038
vn 0.4548 0.6560 -0.6023
vn 0.2673 0.7464 -0.6094
vn 0.3199 0.7301 -0.6038
vn 0.1692 0.7801 -0.6023
vn -0.0387 0.7919 -0.6094
vn 0.0161 0.7970 -0.6038
vn -0.1423 0.7855 -0.6023
vn -0.3388 0.7168 -0.6094
vn -0.2901 0.7425 -0.6038
vn -0.4320 0.6713 -0.6023
vn -0.5873 0.5326 -0.6094
vn -0.5521 0.5750 -0.6038
vn -0.6560 0.4548 -0.6023
vn -0.7464 0.2673 -0.6094
vn -0.7301 0.3199 -0.6038
vn -0.7801 0.1692 -0.6023
vn -0.7919 -0.0387 -0.6094
vn -0.7970 0.0161 -0.6038
vn -0.7855 -0.1423 -0.6023
vn -0.7168 -0.3388 -0.6094
vn -0.7425 -0.2901 -0.6038
vn -0.6713 -0.4320 -0.6023
vn -0.5326 -0.5873 -0.6094
vn -0.5750 -0.5521 -0.6038
vn -0.4548 -0.6560 -0.6023
vn -0.2673 -0.7464 -0.6094
vn -0.3199 -0.7301 -0.6038
vn -0.1692 -0.7801 -0.6023
vn 0.0387 -0.7919 -0.6094
vn -0.0161 -0.7970 -0.6038
vn 0.1423 -0.7855 -0.6023
vn 0.3388 -0.7168 -0.6094
vn 0.2901 -0.7425 -0.6038
vn 0.4320 -0.6713 -0.6023
vn 0.5873 -0.5326 -0.6094
vn 0.5521 -0.5750 -0.6038
vn 0.6560 -0.4548 -0.6023
vn 0.7464 -0.2673 -0.6094
vn 0.7301 -0.3199 -0.6038
vn 0.7801 -0.1692 -0.6023
vn 0.0000 0.0000 1.0000
vn 0.5272 -0.1049 0.8432
vn 0.5376 -0.0000 0.8432
vn 0.4966 -0.2057 0.8432
vn 0.4470 -0.2987 0.8432
vn 0.3801 -0.3801 0.8432
vn 0.2986 -0.4470 0.8432
vn 0.2057 -0.4966 0.8432
vn 0.1049 -0.5272 0.8432
vn 0.0000 -0.5376 0.8432
vn -0.1049 -0.5272 0.8432
vn -0.2057 -0.4966 0.8432
vn -0.2986 -0.4470 0.8432
vn -0.3801 -0.3801 0.8432
vn -0.4470 -0.2986 0.8432
vn -0.4966 -0.2057 0.8432
vn -0.5272 -0.1049 0.8432
vn -0.5376 0.0000 0.8432
vn -0.5272 0.1049 0.8432
vn -0.4966 0.2057 0.8432
vn -0.4470 0.2987 0.8432
vn -0.3801 0.3801 0.8432
vn -0.2986 0.4470 0.8432
vn -0.2057 0.4966 0.8432
vn -0.1049 0.5272 0.8432
vn 0.0000 0.5376 0.8432
vn 0.1049 0.5272 0.8432
vn 0.2057 0.4966 0.8432
vn 0.2986 0.4470 0.8432
vn 0.3801 0.3801 0.8432
vn 0.4470 0.2987 0.8432
vn 0.4966 0.2057 0.8432
vn 0.5272 0.1049 0.8432
vn -0.7662 0.1128 0.6326
vn -0.7800 0.0129 0.6257
vn -0.7668 -0.1370 0.6271
vn -0.7511 -0.1890 0.6326
vn -0.7256 -0.2865 0.6257
vn -0.6560 -0.4200 0.6271
vn -0.6216 -0.4620 0.6326
vn -0.5607 -0.5424 0.6257
vn -0.4453 -0.6391 0.6271
vn -0.3974 -0.6647 0.6326
vn -0.3105 -0.7157 0.6257
vn -0.1669 -0.7609 0.6271
vn -0.1128 -0.7662 0.6326
vn -0.0130 -0.7800 0.6257
vn 0.1370 -0.7668 0.6271
vn 0.1890 -0.7511 0.6326
vn 0.2865 -0.7256 0.6257
vn 0.4200 -0.6560 0.6271
vn 0.4620 -0.6216 0.6326
vn 0.5424 -0.5607 0.6257
vn 0.6391 -0.4453 0.6271
vn 0.6647 -0.3974 0.6326
vn 0.7157 -0.3105 0.6257
vn 0.7609 -0.1669 0.6271
vn 0.7662 -0.1128 0.6326
vn 0.7800 -0.0130 0.6257
vn 0.7668 0.1370 0.6271
vn 0.7511 0.1890 0.6326
vn 0.7256 0.2865 0.6257
vn 0.6560 0.4200 0.6271
vn 0.6216 0.4620 0.6326
vn 0.5607 0.5424 0.6257
vn 0.4453 0.6391 0.6271
vn 0.3974 0.6647 0.6326
vn 0.3105 0.7157 0.6257
vn 0.1669 0.7609 0.6271
vn 0.1128 0.7662 0.6326
vn 0.0130 0.7800 0.6257
vn -0.1370 0.7668 0.6271
vn -0.1890 0.7511 0.6326
vn -0.2865 0.7256 0.6257
vn -0.4200 0.6560 0.6271
vn -0.4620 0.6216 0.6326
vn -0.5424 0.5607 0.6257
vn -0.6391 0.4453 0.6271
vn -0.6647 0.3974 0.6326
vn -0.7157 0.3105 0.6257
vn -0.7609 0.1669 0.6271
vn -0.0000 -0.0000 1.0000
vn -0.0000 0.0000 1.0000
vn 0.0000 -0.0000 1.0000
vn 0.0000 -0.9826 -0.1860
vn -0.3760 -0.9078 -0.1860
vn 0.9078 0.3760 -0.1860
vn 0.9826 -0.0000 -0.1860
vn -0.6948 -0.6948 -0.1860
vn -0.9078 -0.3760 -0.1860
vn -0.9826 0.0000 -0.1860
vn -0.9078 0.3760 -0.1860
vn -0.6948 0.6948 -0.1860
vn -0.3760 0.9078 -0.1860
vn 0.9078 -0.3760 -0.1860
vn 0.6948 -0.6948 -0.1860
vn 0.0000 0.9826 -0.1860
vn 0.3760 0.9078 -0.1860
vn 0.3760 -0.9078 -0.1860
vn 0.6948 0.6948 -0.1860
vn -0.5281 0.6622 0.5317
vn -0.1885 0.8257 0.5317
vn -0.2188 0.9584 0.1833
vn -0.6129 0.7686 0.1833
vn 0.9366 -0.0000 -0.3503
vn 1.0000 0.0000 -0.0000
vn 0.9010 0.4339 0.0000
vn 0.8439 0.4064 -0.3503
vn 0.6235 0.7818 0.0000
vn 0.5840 0.7323 -0.3503
vn -0.7631 0.3675 0.5317
vn -0.8857 0.4265 0.1833
vn 0.2225 0.9749 0.0000
vn 0.2084 0.9132 -0.3503
vn -0.8470 0.0000 0.5317
vn -0.9831 0.0000 0.1833
vn -0.2225 0.9749 -0.0000
vn -0.2084 0.9132 -0.3503
vn -0.7631 -0.3675 0.5317
vn -0.8857 -0.4265 0.1833
vn -0.6235 0.7818 -0.0000
vn -0.5840 0.7323 -0.3503
vn -0.5281 -0.6622 0.5317
vn -0.6129 -0.7686 0.1833
vn -0.9010 0.4339 -0.0000
vn -0.8439 0.4064 -0.3503
vn -0.1885 -0.8257 0.5317
vn -0.2188 -0.9584 0.1833
vn -1.0000 0.0000 -0.0000
vn -0.9366 0.0000 -0.3503
vn 0.1885 -0.8257 0.5317
vn 0.2188 -0.9584 0.1833
vn -0.9010 -0.4339 -0.0000
vn -0.8439 -0.4064 -0.3503
vn 0.5281 -0.6622 0.5317
vn 0.6129 -0.7686 0.1833
vn -0.6235 -0.7818 -0.0000
vn -0.5840 -0.7323 -0.3503
vn 0.7631 -0.3675 0.5317
vn 0.8857 -0.4265 0.1833
vn -0.2225 -0.9749 -0.0000
vn -0.2084 -0.9132 -0.3503
vn 0.8470 -0.0000 0.5317
vn 0.9831 -0.0000 0.1833
vn 0.2225 -0.9749 0.0000
vn 0.2084 -0.9132 -0.3503
vn 0.6235 -0.7818 0.0000
vn 0.5840 -0.7323 -0.3503
vn 0.1885 0.8257 0.5317
vn 0.5281 0.6622 0.5317
vn 0.6129 0.7686 0.1833
vn 0.2188 0.9584 0.1833
vn 0.9010 -0.4339 -0.0000
vn 0.8439 -0.4064 -0.3503
vn 0.4963 0.2390 0.8346
vn 0.5509 0.0000 0.8346
vn 0.7631 0.3675 0.5317
vn 0.4963 -0.2390 0.8346
vn 0.3435 -0.4307 0.8346
vn 0.1226 -0.5371 0.8346
vn -0.1226 -0.5371 0.8346
vn -0.3435 -0.4307 0.8346
vn -0.4963 -0.2390 0.8346
vn -0.5509 -0.0000 0.8346
vn -0.4963 0.2390 0.8346
vn -0.3435 0.4307 0.8346
vn -0.1226 0.5371 0.8346
vn 0.8688 0.4184 -0.2648
vn 0.6012 0.7539 -0.2648
vn 0.6120 0.7674 -0.1911
vn 0.8844 0.4259 -0.1911
vn 0.2146 0.9401 -0.2648
vn 0.2184 0.9570 -0.1911
vn -0.2146 0.9401 -0.2648
vn -0.2184 0.9570 -0.1911
vn -0.6012 0.7539 -0.2648
vn -0.6120 0.7674 -0.1911
vn -0.8688 0.4184 -0.2648
vn -0.8844 0.4259 -0.1911
vn -0.9643 -0.0000 -0.2648
vn -0.9816 -0.0000 -0.1911
vn -0.8688 -0.4184 -0.2648
vn -0.8844 -0.4259 -0.1911
vn -0.6012 -0.7539 -0.2648
vn -0.6120 -0.7674 -0.1911
vn -0.2146 -0.9401 -0.2648
vn -0.2184 -0.9570 -0.1911
vn 0.2146 -0.9401 -0.2648
vn 0.2184 -0.9570 -0.1911
vn 0.6012 -0.7539 -0.2648
vn 0.6120 -0.7674 -0.1911
vn 0.8688 -0.4184 -0.2648
vn 0.8844 -0.4259 -0.1911
vn 0.9643 0.0000 -0.2648
vn 0.9816 -0.0000 -0.1911
vn 0.1226 0.5371 0.8346
vn 0.3435 0.4307 0.8346
vn 0.8358 -0.4025 -0.3734
vn 0.9277 -0.0000 -0.3734
vn 0.8358 0.4025 -0.3734
vn 0.5784 0.7253 -0.3734
vn 0.2064 0.9044 -0.3734
vn -0.2064 0.9044 -0.3734
vn -0.5784 0.7253 -0.3734
vn -0.8358 0.4025 -0.3734
vn -0.9277 0.0000 -0.3734
vn -0.8358 -0.4025 -0.3734
vn -0.5784 -0.7253 -0.3734
vn -0.2064 -0.9044 -0.3734
vn 0.2064 -0.9044 -0.3734
vn 0.5784 -0.7253 -0.3734
vn 0.8857 0.4265 0.1833
vn 0.1569 0.1967 0.9678
vn 0.0560 0.2453 0.9678
vn 0.2267 0.1092 0.9678
vn -0.0560 0.2453 0.9678
vn -0.1569 0.1968 0.9678
vn -0.2267 0.1092 0.9678
vn -0.2517 0.0000 0.9678
vn -0.2267 -0.1092 0.9678
vn -0.1569 -0.1968 0.9678
vn -0.0560 -0.2454 0.9678
vn 0.0560 -0.2453 0.9678
vn 0.1569 -0.1968 0.9678
vn 0.2267 -0.1092 0.9678
vn 0.2517 0.0000 0.9678
# 464 vertex normals

vt 0.8434 0.4507 0.0000
vt 0.8509 0.4815 0.0000
vt 0.8345 0.4815 0.0000
vt 0.0727 0.2458 0.0000
vt 0.8079 0.9102 0.0000
vt 0.7999 0.9191 0.0000
vt 0.0647 0.2547 0.0000
vt 0.8652 0.4733 0.0000
vt 0.8734 0.4591 0.0000
vt 0.8734 0.4426 0.0000
vt 0.8652 0.4283 0.0000
vt 0.8509 0.4201 0.0000
vt 0.8345 0.4201 0.0000
vt 0.8202 0.4283 0.0000
vt 0.8120 0.4426 0.0000
vt 0.8120 0.4591 0.0000
vt 0.8202 0.4733 0.0000
vt 0.9248 0.0820 0.0000
vt 0.9429 0.0322 0.0000
vt 0.9635 0.0504 0.0000
vt 0.8116 0.2789 0.0000
vt 0.7912 0.2617 0.0000
vt 0.8044 0.2459 0.0000
vt 0.8249 0.2631 0.0000
vt 0.9014 0.0651 0.0000
vt 0.8922 0.0129 0.0000
vt 0.9191 0.0184 0.0000
vt 0.7707 0.2445 0.0000
vt 0.7503 0.2273 0.0000
vt 0.7636 0.2115 0.0000
vt 0.7840 0.2287 0.0000
vt 0.8727 0.0622 0.0000
vt 0.8387 0.0216 0.0000
vt 0.8647 0.0129 0.0000
vt 0.7299 0.2101 0.0000
vt 0.7095 0.1929 0.0000
vt 0.7227 0.1772 0.0000
vt 0.7432 0.1944 0.0000
vt 0.8465 0.0741 0.0000
vt 0.7967 0.0559 0.0000
vt 0.8149 0.0354 0.0000
vt 0.6891 0.1757 0.0000
vt 0.6686 0.1586 0.0000
vt 0.6819 0.1428 0.0000
vt 0.7023 0.1600 0.0000
vt 0.8296 0.0974 0.0000
vt 0.7774 0.1067 0.0000
vt 0.7829 0.0797 0.0000
vt 0.6482 0.1414 0.0000
vt 0.6278 0.1242 0.0000
vt 0.6411 0.1084 0.0000
vt 0.6615 0.1256 0.0000
vt 0.8267 0.1261 0.0000
vt 0.7861 0.1602 0.0000
vt 0.7774 0.1341 0.0000
vt 0.6074 0.1070 0.0000
vt 0.5869 0.0898 0.0000
vt 0.6002 0.0740 0.0000
vt 0.6206 0.0912 0.0000
vt 0.8386 0.1524 0.0000
vt 0.8204 0.2022 0.0000
vt 0.7999 0.1840 0.0000
vt 0.8314 0.2554 0.0000
vt 0.8109 0.2382 0.0000
vt 0.8242 0.2224 0.0000
vt 0.8446 0.2396 0.0000
vt 0.8619 0.1692 0.0000
vt 0.8711 0.2214 0.0000
vt 0.8442 0.2159 0.0000
vt 0.7905 0.2210 0.0000
vt 0.7701 0.2038 0.0000
vt 0.7834 0.1880 0.0000
vt 0.8038 0.2052 0.0000
vt 0.8906 0.1721 0.0000
vt 0.9247 0.2127 0.0000
vt 0.8986 0.2214 0.0000
vt 0.7497 0.1866 0.0000
vt 0.7293 0.1694 0.0000
vt 0.7425 0.1537 0.0000
vt 0.7629 0.1709 0.0000
vt 0.9169 0.1603 0.0000
vt 0.9667 0.1784 0.0000
vt 0.9485 0.1990 0.0000
vt 0.7088 0.1522 0.0000
vt 0.6884 0.1351 0.0000
vt 0.7017 0.1193 0.0000
vt 0.7221 0.1365 0.0000
vt 0.9337 0.1369 0.0000
vt 0.9859 0.1277 0.0000
vt 0.9804 0.1546 0.0000
vt 0.6680 0.1179 0.0000
vt 0.6476 0.1007 0.0000
vt 0.6608 0.0849 0.0000
vt 0.6813 0.1021 0.0000
vt 0.9366 0.1082 0.0000
vt 0.9772 0.0742 0.0000
vt 0.9859 0.1002 0.0000
vt 0.6272 0.0835 0.0000
vt 0.6067 0.0663 0.0000
vt 0.6200 0.0505 0.0000
vt 0.6404 0.0677 0.0000
vt 0.7919 0.9279 0.0000
vt 0.0567 0.2635 0.0000
vt 0.7839 0.9368 0.0000
vt 0.0487 0.2724 0.0000
vt 0.7758 0.9456 0.0000
vt 0.0407 0.2812 0.0000
vt 0.7678 0.9545 0.0000
vt 0.0327 0.2901 0.0000
vt 0.7598 0.9634 0.0000
vt 0.0246 0.2989 0.0000
vt 0.1893 0.1168 0.0000
vt 0.9245 0.7812 0.0000
vt 0.9165 0.7901 0.0000
vt 0.1813 0.1257 0.0000
vt 0.9084 0.7989 0.0000
vt 0.1732 0.1345 0.0000
vt 0.9004 0.8078 0.0000
vt 0.1652 0.1434 0.0000
vt 0.8924 0.8167 0.0000
vt 0.1572 0.1522 0.0000
vt 0.8844 0.8255 0.0000
vt 0.1492 0.1611 0.0000
vt 0.8764 0.8344 0.0000
vt 0.1412 0.1700 0.0000
vt 0.5665 0.0726 0.0000
vt 0.5798 0.0569 0.0000
vt 0.5863 0.0491 0.0000
vt 0.5996 0.0333 0.0000
vt 0.7445 0.2815 0.0000
vt 0.7408 0.2897 0.0000
vt 0.6914 0.2655 0.0000
vt 0.6956 0.2575 0.0000
vt 0.7521 0.2650 0.0000
vt 0.7483 0.2732 0.0000
vt 0.6999 0.2494 0.0000
vt 0.7040 0.2413 0.0000
vt 0.7726 0.3665 0.0000
vt 0.7706 0.3754 0.0000
vt 0.7181 0.3647 0.0000
vt 0.7198 0.3558 0.0000
vt 0.7747 0.3577 0.0000
vt 0.7213 0.3468 0.0000
vt 0.7767 0.3489 0.0000
vt 0.7229 0.3379 0.0000
vt 0.7370 0.2979 0.0000
vt 0.6873 0.2736 0.0000
vt 0.8171 0.3594 0.0000
vt 0.8145 0.3679 0.0000
vt 0.7788 0.3401 0.0000
vt 0.8198 0.3508 0.0000
vt 0.7791 0.3062 0.0000
vt 0.7759 0.3145 0.0000
vt 0.7822 0.2978 0.0000
vt 0.7854 0.2893 0.0000
vt 0.7887 0.2809 0.0000
vt 0.8119 0.3765 0.0000
vt 0.8093 0.3852 0.0000
vt 0.8637 0.3755 0.0000
vt 0.8600 0.3836 0.0000
vt 0.8673 0.3675 0.0000
vt 0.8258 0.3218 0.0000
vt 0.8237 0.3304 0.0000
vt 0.8278 0.3132 0.0000
vt 0.8299 0.3045 0.0000
vt 0.8320 0.2957 0.0000
vt 0.8563 0.3918 0.0000
vt 0.8526 0.4000 0.0000
vt 0.8960 0.3929 0.0000
vt 0.8912 0.4002 0.0000
vt 0.9009 0.3856 0.0000
vt 0.8620 0.3279 0.0000
vt 0.8614 0.3366 0.0000
vt 0.8627 0.3192 0.0000
vt 0.8634 0.3102 0.0000
vt 0.8641 0.3013 0.0000
vt 0.8863 0.4077 0.0000
vt 0.8814 0.4152 0.0000
vt 0.9247 0.4159 0.0000
vt 0.9185 0.4220 0.0000
vt 0.9308 0.4097 0.0000
vt 0.8987 0.3272 0.0000
vt 0.8998 0.3359 0.0000
vt 0.8976 0.3186 0.0000
vt 0.8965 0.3098 0.0000
vt 0.8954 0.3009 0.0000
vt 0.9122 0.4283 0.0000
vt 0.9059 0.4347 0.0000
vt 0.9494 0.4468 0.0000
vt 0.9421 0.4515 0.0000
vt 0.9568 0.4421 0.0000
vt 0.9372 0.3180 0.0000
vt 0.9401 0.3262 0.0000
vt 0.9343 0.3097 0.0000
vt 0.9313 0.3014 0.0000
vt 0.9284 0.2930 0.0000
vt 0.9346 0.4563 0.0000
vt 0.9272 0.4611 0.0000
vt 0.9708 0.4891 0.0000
vt 0.9625 0.4921 0.0000
vt 0.9788 0.4855 0.0000
vt 0.9800 0.2975 0.0000
vt 0.9842 0.3053 0.0000
vt 0.9753 0.2901 0.0000
vt 0.9706 0.2827 0.0000
vt 0.9664 0.2749 0.0000
vt 0.9542 0.4951 0.0000
vt 0.9462 0.4987 0.0000
vt 0.9863 0.5582 0.0000
vt 0.9411 0.5660 0.0000
vt 0.9405 0.5576 0.0000
vt 0.9839 0.5501 0.0000
vt 0.9882 0.5665 0.0000
vt 0.9417 0.5745 0.0000
vt 0.6719 0.3261 0.0000
vt 0.6631 0.2811 0.0000
vt 0.6712 0.2786 0.0000
vt 0.6804 0.3249 0.0000
vt 0.6634 0.3267 0.0000
vt 0.6550 0.2835 0.0000
vt 0.6550 0.3274 0.0000
vt 0.6468 0.2859 0.0000
vt 0.6465 0.3286 0.0000
vt 0.6386 0.2884 0.0000
vt 0.9815 0.5419 0.0000
vt 0.9398 0.5491 0.0000
vt 0.9392 0.5405 0.0000
vt 0.9796 0.5336 0.0000
vt 0.9030 0.5653 0.0000
vt 0.9040 0.5569 0.0000
vt 0.9019 0.5736 0.0000
vt 0.6488 0.2457 0.0000
vt 0.6562 0.2417 0.0000
vt 0.6413 0.2497 0.0000
vt 0.6337 0.2537 0.0000
vt 0.6261 0.2578 0.0000
vt 0.9051 0.5483 0.0000
vt 0.9062 0.5398 0.0000
vt 0.8690 0.5573 0.0000
vt 0.8717 0.5493 0.0000
vt 0.8663 0.5654 0.0000
vt 0.6293 0.2168 0.0000
vt 0.6359 0.2114 0.0000
vt 0.6227 0.2222 0.0000
vt 0.6160 0.2278 0.0000
vt 0.6093 0.2333 0.0000
vt 0.8745 0.5410 0.0000
vt 0.8773 0.5328 0.0000
vt 0.8375 0.5435 0.0000
vt 0.8415 0.5358 0.0000
vt 0.8335 0.5511 0.0000
vt 0.6051 0.1923 0.0000
vt 0.6108 0.1858 0.0000
vt 0.5993 0.1988 0.0000
vt 0.5936 0.2054 0.0000
vt 0.5878 0.2121 0.0000
vt 0.8456 0.5280 0.0000
vt 0.8498 0.5203 0.0000
vt 0.8074 0.5249 0.0000
vt 0.8124 0.5177 0.0000
vt 0.8025 0.5322 0.0000
vt 0.5770 0.1709 0.0000
vt 0.5820 0.1636 0.0000
vt 0.5720 0.1781 0.0000
vt 0.5670 0.1854 0.0000
vt 0.5620 0.1928 0.0000
vt 0.8175 0.5104 0.0000
vt 0.8226 0.5031 0.0000
vt 0.7788 0.5032 0.0000
vt 0.7844 0.4963 0.0000
vt 0.7732 0.5102 0.0000
vt 0.5465 0.1518 0.0000
vt 0.5510 0.1441 0.0000
vt 0.5420 0.1596 0.0000
vt 0.5375 0.1674 0.0000
vt 0.5331 0.1752 0.0000
vt 0.7901 0.4893 0.0000
vt 0.7958 0.4823 0.0000
vt 0.7519 0.4801 0.0000
vt 0.7580 0.4733 0.0000
vt 0.7459 0.4868 0.0000
vt 0.5153 0.1350 0.0000
vt 0.5195 0.1269 0.0000
vt 0.5112 0.1431 0.0000
vt 0.5070 0.1511 0.0000
vt 0.5029 0.1593 0.0000
vt 0.7640 0.4665 0.0000
vt 0.7702 0.4598 0.0000
vt 0.5532 0.3050 0.0000
vt 0.5595 0.2983 0.0000
vt 0.5658 0.2917 0.0000
vt 0.5721 0.2851 0.0000
vt 0.2769 0.0201 0.0000
vt 0.2809 0.0118 0.0000
vt 0.2650 0.0448 0.0000
vt 0.2690 0.0366 0.0000
vt 0.5784 0.2784 0.0000
vt 0.2730 0.0283 0.0000
vt 0.7246 0.3290 0.0000
vt 0.1706 0.6958 0.0000
vt 0.1426 0.6035 0.0000
vt 0.1919 0.6871 0.0000
vt 0.1498 0.5996 0.0000
vt 0.2111 0.6742 0.0000
vt 0.2274 0.6580 0.0000
vt 0.1549 0.5933 0.0000
vt 0.2402 0.6388 0.0000
vt 0.2490 0.6175 0.0000
vt 0.1573 0.5855 0.0000
vt 0.2535 0.5949 0.0000
vt 0.2535 0.5718 0.0000
vt 0.1565 0.5773 0.0000
vt 0.2490 0.5492 0.0000
vt 0.2401 0.5279 0.0000
vt 0.1526 0.5701 0.0000
vt 0.2273 0.5088 0.0000
vt 0.2110 0.4925 0.0000
vt 0.1463 0.5649 0.0000
vt 0.1918 0.4797 0.0000
vt 0.1705 0.4709 0.0000
vt 0.1385 0.5626 0.0000
vt 0.1479 0.4664 0.0000
vt 0.1249 0.4664 0.0000
vt 0.1304 0.5634 0.0000
vt 0.1023 0.4710 0.0000
vt 0.0810 0.4798 0.0000
vt 0.1232 0.5672 0.0000
vt 0.0619 0.4927 0.0000
vt 0.0456 0.5089 0.0000
vt 0.1181 0.5735 0.0000
vt 0.0329 0.5281 0.0000
vt 0.0241 0.5494 0.0000
vt 0.1158 0.5813 0.0000
vt 0.0197 0.5720 0.0000
vt 0.0197 0.5950 0.0000
vt 0.1167 0.5894 0.0000
vt 0.0242 0.6175 0.0000
vt 0.0330 0.6388 0.0000
vt 0.1204 0.5967 0.0000
vt 0.0458 0.6579 0.0000
vt 0.0620 0.6742 0.0000
vt 0.1267 0.6019 0.0000
vt 0.0812 0.6870 0.0000
vt 0.1024 0.6958 0.0000
vt 0.1345 0.6043 0.0000
vt 0.1250 0.7003 0.0000
vt 0.1480 0.7004 0.0000
vt 0.3785 0.8272 0.0000
vt 0.3893 0.8380 0.0000
vt 0.3568 0.8597 0.0000
vt 0.4651 0.7391 0.0000
vt 0.4663 0.7352 0.0000
vt 0.4899 0.7450 0.0000
vt 0.4880 0.7486 0.0000
vt 0.4408 0.7344 0.0000
vt 0.4412 0.7303 0.0000
vt 0.4161 0.7343 0.0000
vt 0.4157 0.7303 0.0000
vt 0.3918 0.7391 0.0000
vt 0.3906 0.7352 0.0000
vt 0.3689 0.7485 0.0000
vt 0.3670 0.7449 0.0000
vt 0.3483 0.7622 0.0000
vt 0.3457 0.7591 0.0000
vt 0.3308 0.7797 0.0000
vt 0.3277 0.7771 0.0000
vt 0.3171 0.8002 0.0000
vt 0.3135 0.7983 0.0000
vt 0.3076 0.8231 0.0000
vt 0.3037 0.8219 0.0000
vt 0.3027 0.8473 0.0000
vt 0.2987 0.8469 0.0000
vt 0.3027 0.8720 0.0000
vt 0.2987 0.8724 0.0000
vt 0.3076 0.8963 0.0000
vt 0.3037 0.8975 0.0000
vt 0.3171 0.9192 0.0000
vt 0.3135 0.9211 0.0000
vt 0.3308 0.9397 0.0000
vt 0.3277 0.9423 0.0000
vt 0.3484 0.9572 0.0000
vt 0.3458 0.9604 0.0000
vt 0.3690 0.9710 0.0000
vt 0.3670 0.9746 0.0000
vt 0.3918 0.9805 0.0000
vt 0.3907 0.9844 0.0000
vt 0.4161 0.9853 0.0000
vt 0.4157 0.9894 0.0000
vt 0.4409 0.9853 0.0000
vt 0.4413 0.9894 0.0000
vt 0.4652 0.9805 0.0000
vt 0.4664 0.9844 0.0000
vt 0.4881 0.9710 0.0000
vt 0.4900 0.9746 0.0000
vt 0.5087 0.9572 0.0000
vt 0.5113 0.9604 0.0000
vt 0.5262 0.9397 0.0000
vt 0.5293 0.9423 0.0000
vt 0.5400 0.9192 0.0000
vt 0.5435 0.9211 0.0000
vt 0.5494 0.8963 0.0000
vt 0.5533 0.8975 0.0000
vt 0.5542 0.8720 0.0000
vt 0.5583 0.8724 0.0000
vt 0.5542 0.8473 0.0000
vt 0.5583 0.8469 0.0000
vt 0.5494 0.8231 0.0000
vt 0.5533 0.8219 0.0000
vt 0.5399 0.8002 0.0000
vt 0.5435 0.7983 0.0000
vt 0.5261 0.7797 0.0000
vt 0.5293 0.7771 0.0000
vt 0.5086 0.7623 0.0000
vt 0.5112 0.7591 0.0000
vt 0.1573 0.8350 0.0000
vt 0.2314 0.7515 0.0000
vt 0.2500 0.7701 0.0000
vt 0.1642 0.8406 0.0000
vt 0.2646 0.7919 0.0000
vt 0.2746 0.8161 0.0000
vt 0.1684 0.8484 0.0000
vt 0.2798 0.8418 0.0000
vt 0.2798 0.8681 0.0000
vt 0.1693 0.8572 0.0000
vt 0.2747 0.8938 0.0000
vt 0.2647 0.9181 0.0000
vt 0.1668 0.8658 0.0000
vt 0.2501 0.9399 0.0000
vt 0.2316 0.9585 0.0000
vt 0.1611 0.8726 0.0000
vt 0.2098 0.9731 0.0000
vt 0.1855 0.9831 0.0000
vt 0.1533 0.8768 0.0000
vt 0.1597 0.9883 0.0000
vt 0.1335 0.9883 0.0000
vt 0.1444 0.8777 0.0000
vt 0.1077 0.9832 0.0000
vt 0.0834 0.9731 0.0000
vt 0.1359 0.8751 0.0000
vt 0.0616 0.9585 0.0000
vt 0.0431 0.9399 0.0000
vt 0.1290 0.8694 0.0000
vt 0.0284 0.9181 0.0000
vt 0.0184 0.8938 0.0000
vt 0.1247 0.8616 0.0000
vt 0.0133 0.8681 0.0000
vt 0.0133 0.8418 0.0000
vt 0.1239 0.8527 0.0000
vt 0.0185 0.8161 0.0000
vt 0.0285 0.7918 0.0000
vt 0.1264 0.8442 0.0000
vt 0.0431 0.7700 0.0000
vt 0.0617 0.7515 0.0000
vt 0.1320 0.8373 0.0000
vt 0.0835 0.7369 0.0000
vt 0.1078 0.7269 0.0000
vt 0.1399 0.8332 0.0000
vt 0.1335 0.7218 0.0000
vt 0.1597 0.7218 0.0000
vt 0.1487 0.8324 0.0000
vt 0.1854 0.7269 0.0000
vt 0.2096 0.7370 0.0000
vt 0.3243 0.8815 0.0000
vt 0.3184 0.8674 0.0000
vt 0.3492 0.8214 0.0000
vt 0.3644 0.8214 0.0000
vt 0.3492 0.8981 0.0000
vt 0.3351 0.8923 0.0000
vt 0.3785 0.8923 0.0000
vt 0.3644 0.8981 0.0000
vt 0.3952 0.8674 0.0000
vt 0.3893 0.8815 0.0000
vt 0.3243 0.8380 0.0000
vt 0.3351 0.8272 0.0000
vt 0.3952 0.8521 0.0000
vt 0.3184 0.8521 0.0000
vt 0.4643 0.9159 0.0000
vt 0.4476 0.9145 0.0000
vt 0.4549 0.8692 0.0000
vt 0.4643 0.8699 0.0000
vt 0.5164 0.8015 0.0000
vt 0.5305 0.8102 0.0000
vt 0.5034 0.8473 0.0000
vt 0.4953 0.8423 0.0000
vt 0.4314 0.9106 0.0000
vt 0.4160 0.9042 0.0000
vt 0.4370 0.8633 0.0000
vt 0.4457 0.8670 0.0000
vt 0.4056 0.8102 0.0000
vt 0.4198 0.8015 0.0000
vt 0.4408 0.8423 0.0000
vt 0.4328 0.8473 0.0000
vt 0.4352 0.7950 0.0000
vt 0.4514 0.7911 0.0000
vt 0.4587 0.8364 0.0000
vt 0.4495 0.8387 0.0000
vt 0.5125 0.9042 0.0000
vt 0.4971 0.9106 0.0000
vt 0.4828 0.8670 0.0000
vt 0.4915 0.8633 0.0000
vt 0.4681 0.7898 0.0000
vt 0.4847 0.7911 0.0000
vt 0.4775 0.8364 0.0000
vt 0.4681 0.8357 0.0000
vt 0.4809 0.9145 0.0000
vt 0.4737 0.8692 0.0000
vt 0.5009 0.7950 0.0000
vt 0.4866 0.8387 0.0000
vt 0.4018 0.8954 0.0000
vt 0.4290 0.8584 0.0000
vt 0.5267 0.8954 0.0000
vt 0.4995 0.8584 0.0000
vt 0.4156 0.9484 0.0000
vt 0.4089 0.9551 0.0000
vt 0.3954 0.9349 0.0000
vt 0.3820 0.9148 0.0000
vt 0.3907 0.9111 0.0000
vt 0.4192 0.9397 0.0000
vt 0.3753 0.9215 0.0000
vt 0.4192 0.9302 0.0000
vt 0.3717 0.9302 0.0000
vt 0.4156 0.9215 0.0000
vt 0.3717 0.9397 0.0000
vt 0.3907 0.9587 0.0000
vt 0.3820 0.9551 0.0000
vt 0.4089 0.9148 0.0000
vt 0.3753 0.9484 0.0000
vt 0.4002 0.9587 0.0000
vt 0.4002 0.9111 0.0000
vt 0.0712 0.1324 0.0000
vt 0.0628 0.1275 0.0000
vt 0.0669 0.1175 0.0000
vt 0.0773 0.1223 0.0000
vt 0.1515 0.0168 0.0000
vt 0.1581 0.0168 0.0000
vt 0.1581 0.0283 0.0000
vt 0.1515 0.0283 0.0000
vt 0.1581 0.0397 0.0000
vt 0.1515 0.0397 0.0000
vt 0.0795 0.1397 0.0000
vt 0.0885 0.1292 0.0000
vt 0.1581 0.0512 0.0000
vt 0.1515 0.0512 0.0000
vt 0.0875 0.1510 0.0000
vt 0.1017 0.1393 0.0000
vt 0.1581 0.0627 0.0000
vt 0.1515 0.0627 0.0000
vt 0.8908 0.9461 0.0000
vt 0.8770 0.9491 0.0000
vt 0.8747 0.9309 0.0000
vt 0.8907 0.9321 0.0000
vt 0.1581 0.0742 0.0000
vt 0.1515 0.0742 0.0000
vt 0.9019 0.9458 0.0000
vt 0.9034 0.9341 0.0000
vt 0.1581 0.0857 0.0000
vt 0.1515 0.0857 0.0000
vt 0.9116 0.9474 0.0000
vt 0.9144 0.9369 0.0000
vt 0.1581 0.0972 0.0000
vt 0.1515 0.0972 0.0000
vt 0.9205 0.9506 0.0000
vt 0.9247 0.9405 0.0000
vt 0.1354 0.1021 0.0000
vt 0.1289 0.1021 0.0000
vt 0.1289 0.0906 0.0000
vt 0.1354 0.0906 0.0000
vt 0.9289 0.9556 0.0000
vt 0.9351 0.9455 0.0000
vt 0.1289 0.0791 0.0000
vt 0.1354 0.0791 0.0000
vt 0.9372 0.9630 0.0000
vt 0.9463 0.9524 0.0000
vt 0.1289 0.0676 0.0000
vt 0.1354 0.0676 0.0000
vt 0.9452 0.9743 0.0000
vt 0.9595 0.9626 0.0000
vt 0.1289 0.0562 0.0000
vt 0.1354 0.0562 0.0000
vt 0.1289 0.0447 0.0000
vt 0.1354 0.0447 0.0000
vt 0.0540 0.1244 0.0000
vt 0.0443 0.1230 0.0000
vt 0.0456 0.1113 0.0000
vt 0.0566 0.1139 0.0000
vt 0.1289 0.0332 0.0000
vt 0.1354 0.0332 0.0000
vt 0.1289 0.0217 0.0000
vt 0.1354 0.0217 0.0000
vt 0.0364 0.1355 0.0000
vt 0.0278 0.1405 0.0000
vt 0.0199 0.1268 0.0000
vt 0.0331 0.1234 0.0000
vt 0.9306 0.9791 0.0000
vt 0.9273 0.9701 0.0000
vt 0.9222 0.9638 0.0000
vt 0.9162 0.9595 0.0000
vt 0.9094 0.9572 0.0000
vt 0.9020 0.9566 0.0000
vt 0.8938 0.9584 0.0000
vt 0.8849 0.9634 0.0000
vt 0.0729 0.1558 0.0000
vt 0.0697 0.1469 0.0000
vt 0.0646 0.1406 0.0000
vt 0.0586 0.1364 0.0000
vt 0.0525 0.0627 0.0000
vt 0.0618 0.0672 0.0000
vt 0.0488 0.0975 0.0000
vt 0.0362 0.0934 0.0000
vt 0.0713 0.0707 0.0000
vt 0.0603 0.1012 0.0000
vt 0.0809 0.0736 0.0000
vt 0.0714 0.1049 0.0000
vt 0.0909 0.0758 0.0000
vt 0.0829 0.1091 0.0000
vt 0.1014 0.0772 0.0000
vt 0.0960 0.1138 0.0000
vt 0.1125 0.0776 0.0000
vt 0.1125 0.1194 0.0000
vt 0.9019 0.8804 0.0000
vt 0.9107 0.8858 0.0000
vt 0.8942 0.9162 0.0000
vt 0.8796 0.9106 0.0000
vt 0.9200 0.8903 0.0000
vt 0.9068 0.9204 0.0000
vt 0.9294 0.8939 0.0000
vt 0.9182 0.9242 0.0000
vt 0.9390 0.8968 0.0000
vt 0.9293 0.9281 0.0000
vt 0.9490 0.8991 0.0000
vt 0.9408 0.9323 0.0000
vt 0.9594 0.9006 0.0000
vt 0.9538 0.9371 0.0000
vt 0.9705 0.9010 0.0000
vt 0.9704 0.9428 0.0000
vt 0.0519 0.1341 0.0000
vt 0.0445 0.1337 0.0000
vt 0.9605 0.8822 0.0000
vt 0.9605 0.8765 0.0000
vt 0.9684 0.8757 0.0000
vt 0.9698 0.8816 0.0000
vt 0.0613 0.0471 0.0000
vt 0.0645 0.0421 0.0000
vt 0.0715 0.0459 0.0000
vt 0.0691 0.0512 0.0000
vt 0.0789 0.0489 0.0000
vt 0.0771 0.0544 0.0000
vt 0.0866 0.0512 0.0000
vt 0.0853 0.0568 0.0000
vt 0.0944 0.0526 0.0000
vt 0.0937 0.0583 0.0000
vt 0.1024 0.0531 0.0000
vt 0.1025 0.0589 0.0000
vt 0.1103 0.0523 0.0000
vt 0.1118 0.0582 0.0000
vt 0.9119 0.8649 0.0000
vt 0.9163 0.8604 0.0000
vt 0.9228 0.8653 0.0000
vt 0.9196 0.8703 0.0000
vt 0.9298 0.8692 0.0000
vt 0.9273 0.8744 0.0000
vt 0.9371 0.8722 0.0000
vt 0.9352 0.8776 0.0000
vt 0.9447 0.8745 0.0000
vt 0.9434 0.8800 0.0000
vt 0.9525 0.8759 0.0000
vt 0.9518 0.8816 0.0000
vt 0.0536 0.0417 0.0000
vt 0.0580 0.0371 0.0000
vt 0.0212 0.0879 0.0000
vt 0.0330 0.1095 0.0000
vt 0.0163 0.1088 0.0000
vt 0.0463 0.1452 0.0000
vt 0.0500 0.1450 0.0000
vt 0.0490 0.1541 0.0000
vt 0.0427 0.1468 0.0000
vt 0.0534 0.1461 0.0000
vt 0.0563 0.1484 0.0000
vt 0.0582 0.1517 0.0000
vt 0.0588 0.1558 0.0000
vt 0.9001 0.9699 0.0000
vt 0.8970 0.9731 0.0000
vt 0.9037 0.9683 0.0000
vt 0.9074 0.9682 0.0000
vt 0.9109 0.9693 0.0000
vt 0.9138 0.9716 0.0000
vt 0.9158 0.9750 0.0000
vt 0.9163 0.9791 0.0000
vt 0.0397 0.1500 0.0000
vt 0.9064 0.9774 0.0000
vt 0.0436 0.0573 0.0000
# 691 texture coords

o StreetLamp1_Short
g StreetLamp1_Short
usemtl wire_204204204
s off
f 1/1/1 2/2/2 3/3/2 
f 4/4/3 5/5/3 6/6/4 7/7/4 
f 1/1/1 8/8/1 2/2/2 
f 1/1/1 9/9/2 8/8/1 
f 1/1/1 10/10/1 9/9/2 
f 1/1/1 11/11/1 10/10/1 
f 1/1/1 12/12/2 11/11/1 
f 1/1/1 13/13/1 12/12/2 
f 1/1/1 14/14/1 13/13/1 
f 1/1/1 15/15/2 14/14/1 
f 1/1/1 5/16/1 15/15/2 
f 1/1/1 3/3/2 6/17/1 
f 1/1/1 6/17/1 5/16/1 
f 16/18/5 17/19/6 18/20/7 
f 18/21/8 17/22/9 19/23/9 20/24/8 
f 21/25/10 22/26/11 23/27/12 
f 23/28/13 22/29/14 24/30/14 25/31/13 
f 26/32/15 27/33/16 28/34/17 
f 28/35/18 27/36/19 29/37/19 30/38/18 
f 31/39/20 32/40/21 33/41/22 
f 33/42/23 32/43/24 34/44/24 35/45/23 
f 36/46/25 37/47/26 38/48/27 
f 38/49/28 37/50/29 39/51/29 40/52/28 
f 41/53/30 42/54/31 43/55/32 
f 43/56/33 42/57/34 44/58/34 45/59/33 
f 4/60/35 46/61/36 47/62/37 
f 47/63/3 46/64/38 48/65/38 49/66/3 
f 7/67/39 50/68/40 51/69/41 
f 51/70/4 50/71/42 52/72/42 53/73/4 
f 54/74/43 55/75/44 56/76/45 
f 56/77/46 55/78/47 57/79/47 58/80/46 
f 59/81/48 60/82/49 61/83/50 
f 61/84/51 60/85/52 62/86/52 63/87/51 
f 64/88/53 65/89/54 66/90/55 
f 66/91/56 65/92/57 67/93/57 68/94/56 
f 69/95/58 70/96/59 71/97/60 
f 71/98/61 70/99/62 72/100/62 73/101/61 
f 7/7/4 6/6/4 3/102/46 54/103/46 
f 54/103/46 3/102/46 2/104/51 59/105/51 
f 59/105/51 2/104/51 8/106/56 64/107/56 
f 64/107/56 8/106/56 9/108/61 69/109/61 
f 69/109/61 9/108/61 10/110/8 16/111/8 
f 16/112/8 10/113/8 11/114/13 21/115/13 
f 21/115/13 11/114/13 12/116/18 26/117/18 
f 26/117/18 12/116/18 13/118/23 31/119/23 
f 31/119/23 13/118/23 14/120/28 36/121/28 
f 36/121/28 14/120/28 15/122/33 41/123/33 
f 41/123/33 15/122/33 5/124/3 4/125/3 
f 64/88/53 69/95/58 71/97/60 65/89/54 
f 4/60/35 7/67/39 51/69/41 46/61/36 
f 7/67/39 54/74/43 56/76/45 50/68/40 
f 59/81/48 64/88/53 66/90/55 60/82/49 
f 41/53/30 4/60/35 47/62/37 42/54/31 
f 54/74/43 59/81/48 61/83/50 55/75/44 
f 36/46/25 41/53/30 43/55/32 37/47/26 
f 31/39/20 36/46/25 38/48/27 32/40/21 
f 26/32/15 31/39/20 33/41/22 27/33/16 
f 21/25/10 26/32/15 28/34/17 22/26/11 
f 16/18/5 21/25/10 23/27/12 17/19/6 
f 69/95/58 16/18/5 18/20/7 70/96/59 
f 55/78/47 61/84/51 63/87/51 57/79/47 
f 32/43/24 38/49/28 40/52/28 34/44/24 
f 17/22/9 23/28/13 25/31/13 19/23/9 
f 60/85/52 66/91/56 68/94/56 62/86/52 
f 37/50/29 43/56/33 45/59/33 39/51/29 
f 22/29/14 28/35/18 30/38/18 24/30/14 
f 65/92/57 71/98/61 73/101/61 67/93/57 
f 42/57/34 47/126/3 49/127/3 44/58/34 
f 50/71/42 56/77/46 58/80/46 52/72/42 
f 27/36/19 33/42/23 35/45/23 29/37/19 
f 70/99/62 18/128/8 20/129/8 72/100/62 
f 46/64/38 51/70/4 53/73/4 48/65/38 
f 74/130/63 75/131/64 76/132/65 77/133/66 
f 78/134/67 79/135/68 80/136/69 81/137/70 
f 82/138/71 78/139/67 81/140/70 83/141/72 
f 84/142/73 82/138/71 83/141/72 85/143/74 
f 86/144/75 84/142/73 85/143/74 87/145/76 
f 79/135/68 74/130/63 77/133/66 80/136/69 
f 75/131/64 88/146/77 89/147/78 76/132/65 
f 86/144/75 90/148/79 91/149/80 84/142/73 
f 88/150/77 92/151/81 90/148/79 86/144/75 
f 75/131/64 93/152/82 92/153/81 88/146/77 
f 74/130/63 94/154/83 93/152/82 75/131/64 
f 79/135/68 95/155/84 94/154/83 74/130/63 
f 78/134/67 96/156/85 95/155/84 79/135/68 
f 82/138/71 97/157/86 96/158/85 78/139/67 
f 84/142/73 91/149/80 97/157/86 82/138/71 
f 90/148/79 98/159/87 99/160/88 91/149/80 
f 92/151/81 100/161/89 98/159/87 90/148/79 
f 93/152/82 101/162/90 100/163/89 92/153/81 
f 94/154/83 102/164/91 101/162/90 93/152/82 
f 95/155/84 103/165/92 102/164/91 94/154/83 
f 96/156/85 104/166/93 103/165/92 95/155/84 
f 97/157/86 105/167/94 104/168/93 96/158/85 
f 91/149/80 99/160/88 105/167/94 97/157/86 
f 98/159/87 106/169/95 107/170/96 99/160/88 
f 100/161/89 108/171/97 106/169/95 98/159/87 
f 101/162/90 109/172/98 108/173/97 100/163/89 
f 102/164/91 110/174/99 109/172/98 101/162/90 
f 103/165/92 111/175/100 110/174/99 102/164/91 
f 104/166/93 112/176/101 111/175/100 103/165/92 
f 105/167/94 113/177/102 112/178/101 104/168/93 
f 99/160/88 107/170/96 113/177/102 105/167/94 
f 106/169/95 114/179/103 115/180/104 107/170/96 
f 108/171/97 116/181/105 114/179/103 106/169/95 
f 109/172/98 117/182/106 116/183/105 108/173/97 
f 110/174/99 118/184/107 117/182/106 109/172/98 
f 111/175/100 119/185/108 118/184/107 110/174/99 
f 112/176/101 120/186/109 119/185/108 111/175/100 
f 113/177/102 121/187/110 120/188/109 112/178/101 
f 107/170/96 115/180/104 121/187/110 113/177/102 
f 114/179/103 122/189/111 123/190/112 115/180/104 
f 116/181/105 124/191/113 122/189/111 114/179/103 
f 117/182/106 125/192/114 124/193/113 116/183/105 
f 118/184/107 126/194/115 125/192/114 117/182/106 
f 119/185/108 127/195/116 126/194/115 118/184/107 
f 120/186/109 128/196/117 127/195/116 119/185/108 
f 121/187/110 129/197/118 128/198/117 120/188/109 
f 115/180/104 123/190/112 129/197/118 121/187/110 
f 122/189/111 130/199/119 131/200/120 123/190/112 
f 124/191/113 132/201/121 130/199/119 122/189/111 
f 125/192/114 133/202/122 132/203/121 124/193/113 
f 126/194/115 134/204/123 133/202/122 125/192/114 
f 127/195/116 135/205/124 134/204/123 126/194/115 
f 128/196/117 136/206/125 135/205/124 127/195/116 
f 129/197/118 137/207/126 136/208/125 128/198/117 
f 123/190/112 131/200/120 137/207/126 129/197/118 
f 130/209/119 138/210/127 139/211/128 131/212/120 
f 132/213/121 140/214/129 138/210/127 130/209/119 
f 133/215/122 141/216/130 140/217/129 132/218/121 
f 134/219/123 142/220/131 141/216/130 133/215/122 
f 135/221/124 143/222/132 142/220/131 134/219/123 
f 136/223/125 144/224/133 143/222/132 135/221/124 
f 137/225/126 145/226/134 144/227/133 136/228/125 
f 131/212/120 139/211/128 145/226/134 137/225/126 
f 138/210/127 146/229/135 147/230/136 139/211/128 
f 140/214/129 148/231/137 146/229/135 138/210/127 
f 141/216/130 149/232/138 148/233/137 140/217/129 
f 142/220/131 150/234/139 149/232/138 141/216/130 
f 143/222/132 151/235/140 150/234/139 142/220/131 
f 144/224/133 152/236/141 151/235/140 143/222/132 
f 145/226/134 153/237/142 152/238/141 144/227/133 
f 139/211/128 147/230/136 153/237/142 145/226/134 
f 146/229/135 154/239/143 155/240/144 147/230/136 
f 148/231/137 156/241/145 154/239/143 146/229/135 
f 149/232/138 157/242/146 156/243/145 148/233/137 
f 150/234/139 158/244/147 157/242/146 149/232/138 
f 151/235/140 159/245/148 158/244/147 150/234/139 
f 152/236/141 160/246/149 159/245/148 151/235/140 
f 153/237/142 161/247/150 160/248/149 152/238/141 
f 147/230/136 155/240/144 161/247/150 153/237/142 
f 154/239/143 162/249/151 163/250/152 155/240/144 
f 156/241/145 164/251/153 162/249/151 154/239/143 
f 157/242/146 165/252/154 164/253/153 156/243/145 
f 158/244/147 166/254/155 165/252/154 157/242/146 
f 159/245/148 167/255/156 166/254/155 158/244/147 
f 160/246/149 168/256/157 167/255/156 159/245/148 
f 161/247/150 169/257/158 168/258/157 160/248/149 
f 155/240/144 163/250/152 169/257/158 161/247/150 
f 162/249/151 170/259/159 171/260/160 163/250/152 
f 164/251/153 172/261/161 170/259/159 162/249/151 
f 165/252/154 173/262/162 172/263/161 164/253/153 
f 166/254/155 174/264/163 173/262/162 165/252/154 
f 167/255/156 175/265/164 174/264/163 166/254/155 
f 168/256/157 176/266/165 175/265/164 167/255/156 
f 169/257/158 177/267/166 176/268/165 168/258/157 
f 163/250/152 171/260/160 177/267/166 169/257/158 
f 170/259/159 178/269/167 179/270/168 171/260/160 
f 172/261/161 180/271/169 178/269/167 170/259/159 
f 173/262/162 181/272/170 180/273/169 172/263/161 
f 174/264/163 182/274/171 181/272/170 173/262/162 
f 175/265/164 183/275/172 182/274/171 174/264/163 
f 176/266/165 184/276/173 183/275/172 175/265/164 
f 177/267/166 185/277/174 184/278/173 176/268/165 
f 171/260/160 179/270/168 185/277/174 177/267/166 
f 178/269/167 186/279/175 187/280/176 179/270/168 
f 180/271/169 188/281/177 186/279/175 178/269/167 
f 181/272/170 189/282/178 188/283/177 180/273/169 
f 182/274/171 190/284/179 189/282/178 181/272/170 
f 183/275/172 191/285/180 190/284/179 182/274/171 
f 184/276/173 192/286/181 191/285/180 183/275/172 
f 185/277/174 193/287/182 192/288/181 184/278/173 
f 179/270/168 187/280/176 193/287/182 185/277/174 
f 194/289/183 195/290/184 186/279/175 188/281/177 
f 196/291/185 197/292/186 193/287/182 187/280/176 
f 198/293/187 194/294/183 188/283/177 189/282/178 
f 195/290/184 196/291/185 187/280/176 186/279/175 
f 199/295/188 200/296/189 191/285/180 192/286/181 
f 197/292/186 199/297/188 192/288/181 193/287/182 
f 200/296/189 201/298/190 190/284/179 191/285/180 
f 201/298/190 198/293/187 189/282/178 190/284/179 
f 88/150/77 86/144/75 87/145/76 89/299/78 
f 202/300/191 203/301/192 204/302/193 
f 204/302/193 203/301/192 205/303/194 206/304/195 
f 206/304/195 205/303/194 207/305/196 
f 207/305/196 205/303/194 208/306/197 209/307/198 
f 209/307/198 208/306/197 210/308/199 
f 210/308/199 208/306/197 211/309/200 212/310/201 
f 212/310/201 211/309/200 213/311/202 
f 213/311/202 211/309/200 214/312/203 215/313/204 
f 215/313/204 214/312/203 216/314/205 
f 216/314/205 214/312/203 217/315/206 218/316/207 
f 218/316/207 217/315/206 219/317/208 
f 219/317/208 217/315/206 220/318/209 221/319/210 
f 221/319/210 220/318/209 222/320/211 
f 222/320/211 220/318/209 223/321/212 224/322/213 
f 224/322/213 223/321/212 225/323/214 
f 225/323/214 223/321/212 226/324/215 227/325/216 
f 227/325/216 226/324/215 228/326/217 
f 228/326/217 226/324/215 229/327/218 230/328/219 
f 230/328/219 229/327/218 231/329/220 
f 231/329/220 229/327/218 232/330/221 233/331/222 
f 233/331/222 232/330/221 234/332/223 
f 234/332/223 232/330/221 235/333/224 236/334/225 
f 236/334/225 235/333/224 237/335/226 
f 237/335/226 235/333/224 238/336/227 239/337/228 
f 239/337/228 238/336/227 240/338/229 
f 240/338/229 238/336/227 241/339/230 242/340/231 
f 242/340/231 241/339/230 243/341/232 
f 243/341/232 241/339/230 244/342/233 245/343/234 
f 245/343/234 244/342/233 246/344/235 
f 246/344/235 244/342/233 247/345/236 248/346/237 
f 248/346/237 247/345/236 249/347/238 
f 250/348/239 251/349/239 252/350/239 
f 253/351/240 249/352/240 202/353/241 254/354/241 
f 255/355/242 248/356/242 249/352/240 253/351/240 
f 256/357/243 246/358/243 248/356/242 255/355/242 
f 257/359/244 245/360/244 246/358/243 256/357/243 
f 258/361/245 243/362/245 245/360/244 257/359/244 
f 259/363/246 242/364/246 243/362/245 258/361/245 
f 260/365/247 240/366/247 242/364/246 259/363/246 
f 261/367/248 239/368/248 240/366/247 260/365/247 
f 262/369/249 237/370/249 239/368/248 261/367/248 
f 263/371/250 236/372/250 237/370/249 262/369/249 
f 264/373/251 234/374/251 236/372/250 263/371/250 
f 265/375/252 233/376/252 234/374/251 264/373/251 
f 266/377/253 231/378/253 233/376/252 265/375/252 
f 267/379/254 230/380/254 231/378/253 266/377/253 
f 268/381/255 228/382/255 230/380/254 267/379/254 
f 269/383/256 227/384/256 228/382/255 268/381/255 
f 270/385/257 225/386/257 227/384/256 269/383/256 
f 271/387/258 224/388/258 225/386/257 270/385/257 
f 272/389/259 222/390/259 224/388/258 271/387/258 
f 273/391/260 221/392/260 222/390/259 272/389/259 
f 274/393/261 219/394/261 221/392/260 273/391/260 
f 275/395/262 218/396/262 219/394/261 274/393/261 
f 276/397/263 216/398/263 218/396/262 275/395/262 
f 277/399/264 215/400/264 216/398/263 276/397/263 
f 278/401/265 213/402/265 215/400/264 277/399/264 
f 279/403/266 212/404/266 213/402/265 278/401/265 
f 280/405/267 210/406/267 212/404/266 279/403/266 
f 281/407/268 209/408/268 210/406/267 280/405/267 
f 282/409/269 207/410/269 209/408/268 281/407/268 
f 283/411/270 206/412/270 207/410/269 282/409/269 
f 284/413/271 204/414/271 206/412/270 283/411/270 
f 254/354/241 202/353/241 204/414/271 284/413/271 
f 285/415/272 254/416/273 284/417/274 286/418/275 
f 286/418/275 284/417/274 283/419/276 
f 286/418/275 283/419/276 282/420/277 250/421/278 
f 250/421/278 282/420/277 281/422/279 
f 250/421/278 281/422/279 280/423/280 251/424/281 
f 251/424/281 280/423/280 279/425/282 
f 251/424/281 279/425/282 278/426/283 287/427/284 
f 287/427/284 278/426/283 277/428/285 
f 287/427/284 277/428/285 276/429/286 288/430/287 
f 288/430/287 276/429/286 275/431/288 
f 288/430/287 275/431/288 274/432/289 289/433/290 
f 289/433/290 274/432/289 273/434/291 
f 289/433/290 273/434/291 272/435/292 290/436/293 
f 290/436/293 272/435/292 271/437/294 
f 290/436/293 271/437/294 270/438/295 291/439/296 
f 291/439/296 270/438/295 269/440/297 
f 291/439/296 269/440/297 268/441/298 292/442/299 
f 292/442/299 268/441/298 267/443/300 
f 292/442/299 267/443/300 266/444/301 293/445/302 
f 293/445/302 266/444/301 265/446/303 
f 293/445/302 265/446/303 264/447/304 294/448/305 
f 294/448/305 264/447/304 263/449/306 
f 294/448/305 263/449/306 262/450/307 295/451/308 
f 295/451/308 262/450/307 261/452/309 
f 295/451/308 261/452/309 260/453/310 296/454/311 
f 296/454/311 260/453/310 259/455/312 
f 296/454/311 259/455/312 258/456/313 297/457/314 
f 297/457/314 258/456/313 257/458/315 
f 297/457/314 257/458/315 256/459/316 298/460/317 
f 298/460/317 256/459/316 255/461/318 
f 298/460/317 255/461/318 253/462/319 285/415/272 
f 285/415/272 253/462/319 254/416/273 
f 294/463/320 295/464/320 252/350/239 
f 285/465/239 286/466/239 252/350/239 
f 292/467/321 293/468/321 252/350/239 
f 290/469/321 291/470/321 252/350/239 
f 288/471/321 289/472/321 252/350/239 
f 297/473/239 298/474/239 252/350/239 
f 251/349/239 287/475/322 252/350/239 
f 295/464/320 296/476/239 252/350/239 
f 286/466/239 250/348/239 252/350/239 
f 293/468/321 294/463/320 252/350/239 
f 291/470/321 292/467/321 252/350/239 
f 289/472/321 290/469/321 252/350/239 
f 298/474/239 285/465/239 252/350/239 
f 287/475/322 288/471/321 252/350/239 
f 296/476/239 297/473/239 252/350/239 
f 249/347/238 247/345/236 203/301/192 202/300/191 
f 238/477/323 235/478/324 299/479/324 300/480/323 
f 205/481/325 203/482/326 301/483/326 302/484/325 
f 232/485/327 229/486/328 303/487/328 304/488/327 
f 226/489/329 223/490/330 305/491/330 306/492/329 
f 220/493/331 217/494/332 307/495/332 308/496/331 
f 247/497/333 244/498/334 309/499/334 310/500/333 
f 214/501/335 211/502/336 311/503/336 312/504/335 
f 241/505/337 238/477/323 300/480/323 313/506/337 
f 208/507/338 205/481/325 302/484/325 314/508/338 
f 235/478/324 232/485/327 304/488/327 299/479/324 
f 229/486/328 226/509/329 306/510/329 303/487/328 
f 223/490/330 220/493/331 308/496/331 305/491/330 
f 203/511/326 247/497/333 310/500/333 301/512/326 
f 217/494/332 214/501/335 312/504/335 307/495/332 
f 244/498/334 241/505/337 313/506/337 309/499/334 
f 211/502/336 208/507/338 314/508/338 311/503/336 
f 312/513/1 311/514/1 315/515/1 
f 299/516/1 304/517/1 315/515/1 
f 307/518/1 312/513/1 315/515/1 
f 300/519/2 299/516/1 315/515/1 
f 308/520/1 307/518/1 315/515/1 
f 313/521/2 300/519/2 315/515/1 
f 305/522/1 308/520/1 315/515/1 
f 309/523/1 313/521/2 315/515/1 
f 302/524/1 301/525/1 315/515/1 
f 306/526/1 305/522/1 315/515/1 
f 310/527/1 309/523/1 315/515/1 
f 314/528/1 302/524/1 315/515/1 
f 303/529/1 306/526/1 315/515/1 
f 301/525/1 310/527/1 315/515/1 
f 311/514/1 314/528/1 315/515/1 
f 304/517/1 303/529/1 315/515/1 
f 316/530/339 317/531/340 318/532/341 319/533/342 
f 320/534/343 321/535/344 322/536/345 323/537/346 
f 323/537/346 322/536/345 324/538/347 325/539/348 
f 326/540/349 316/530/339 319/533/342 327/541/350 
f 325/539/348 324/538/347 328/542/351 329/543/352 
f 330/544/353 326/540/349 327/541/350 331/545/354 
f 329/543/352 328/542/351 332/546/355 333/547/356 
f 334/548/357 330/549/353 331/550/354 335/551/358 
f 333/547/356 332/546/355 336/552/359 337/553/360 
f 338/554/361 334/548/357 335/551/358 339/555/362 
f 337/553/360 336/552/359 340/556/363 341/557/364 
f 342/558/365 338/554/361 339/555/362 343/559/366 
f 341/557/364 340/556/363 344/560/367 345/561/368 
f 346/562/369 342/558/365 343/559/366 347/563/370 
f 345/564/368 344/565/367 348/566/371 349/567/372 
f 350/568/373 346/562/369 347/563/370 351/569/374 
f 349/567/372 348/566/371 352/570/375 353/571/376 
f 354/572/377 350/568/373 351/569/374 355/573/378 
f 353/571/376 352/570/375 356/574/379 357/575/380 
f 358/576/381 354/572/377 355/573/378 359/577/382 
f 357/575/380 356/574/379 360/578/383 361/579/384 
f 361/579/384 360/578/383 362/580/385 363/581/386 
f 364/582/387 365/583/388 366/584/389 367/585/390 
f 363/581/386 362/580/385 368/586/391 369/587/392 
f 369/587/392 368/586/391 321/588/344 320/589/343 
f 370/590/393 371/591/394 358/592/381 372/593/395 
f 371/594/394 373/595/396 354/572/377 358/576/381 
f 373/595/396 374/596/397 350/568/373 354/572/377 
f 374/596/397 375/597/398 346/562/369 350/568/373 
f 375/597/398 376/598/399 342/558/365 346/562/369 
f 376/598/399 377/599/400 338/554/361 342/558/365 
f 377/599/400 378/600/401 334/548/357 338/554/361 
f 378/600/401 379/601/402 330/549/353 334/548/357 
f 379/602/402 380/603/403 326/540/349 330/544/353 
f 380/603/403 381/604/404 316/530/339 326/540/349 
f 381/604/404 382/605/405 317/531/340 316/530/339 
f 383/606/406 384/607/407 385/608/408 386/609/409 
f 384/607/407 387/610/410 388/611/411 385/608/408 
f 387/610/410 389/612/412 390/613/413 388/611/411 
f 389/612/412 391/614/414 392/615/415 390/613/413 
f 391/614/414 393/616/416 394/617/417 392/615/415 
f 393/616/416 395/618/418 396/619/419 394/617/417 
f 395/620/418 397/621/420 398/622/421 396/623/419 
f 397/621/420 399/624/422 400/625/423 398/622/421 
f 399/624/422 401/626/424 402/627/425 400/625/423 
f 401/626/424 403/628/426 404/629/427 402/627/425 
f 403/628/426 405/630/428 406/631/429 404/629/427 
f 405/630/428 407/632/430 408/633/431 406/631/429 
f 407/632/430 409/634/432 410/635/433 408/633/431 
f 411/636/434 412/637/435 365/583/388 364/582/387 
f 317/531/340 364/582/387 367/585/390 318/532/341 
f 413/638/436 369/639/392 320/640/343 414/641/437 
f 415/642/438 323/643/346 325/644/348 416/645/439 
f 416/645/439 325/644/348 329/646/352 417/647/440 
f 417/647/440 329/646/352 333/648/356 418/649/441 
f 418/649/441 333/648/356 337/650/360 419/651/442 
f 419/651/442 337/650/360 341/652/364 420/653/443 
f 420/653/443 341/652/364 345/654/368 421/655/444 
f 421/656/444 345/657/368 349/658/372 422/659/445 
f 422/659/445 349/658/372 353/660/376 423/661/446 
f 423/661/446 353/660/376 357/662/380 424/663/447 
f 424/663/447 357/662/380 361/664/384 425/665/448 
f 425/665/448 361/664/384 363/666/386 426/667/449 
f 426/667/449 363/666/386 369/639/392 413/638/436 
f 382/605/405 411/636/434 364/582/387 317/531/340 
f 414/668/437 320/669/343 323/643/346 415/642/438 
f 410/670/433 386/609/409 427/671/450 359/672/382 
f 386/609/409 385/608/408 366/584/389 427/671/450 
f 385/608/408 388/611/411 367/585/390 366/584/389 
f 388/611/411 390/613/413 318/532/341 367/585/390 
f 390/613/413 392/615/415 319/533/342 318/532/341 
f 392/615/415 394/617/417 327/541/350 319/533/342 
f 394/617/417 396/619/419 331/545/354 327/541/350 
f 396/623/419 398/622/421 335/551/358 331/550/354 
f 398/622/421 400/625/423 339/555/362 335/551/358 
f 400/625/423 402/627/425 343/559/366 339/555/362 
f 402/627/425 404/629/427 347/563/370 343/559/366 
f 404/629/427 406/631/429 351/569/374 347/563/370 
f 406/631/429 408/633/431 355/573/378 351/569/374 
f 408/633/431 410/635/433 359/577/382 355/573/378 
f 428/673/451 429/674/452 430/675/322 
f 365/583/388 372/593/395 427/671/450 366/584/389 
f 370/590/393 412/637/435 428/673/451 431/676/453 
f 412/637/435 411/636/434 429/674/452 428/673/451 
f 411/636/434 382/605/405 432/677/454 429/674/452 
f 382/605/405 381/604/404 433/678/455 432/677/454 
f 381/604/404 380/603/403 434/679/456 433/678/455 
f 380/603/403 379/602/402 435/680/457 434/679/456 
f 379/601/402 378/600/401 436/681/458 435/682/457 
f 378/600/401 377/599/400 437/683/459 436/681/458 
f 377/599/400 376/598/399 438/684/460 437/683/459 
f 376/598/399 375/597/398 439/685/461 438/684/460 
f 375/597/398 374/596/397 440/686/462 439/685/461 
f 374/596/397 373/595/396 441/687/463 440/686/462 
f 373/595/396 371/594/394 442/688/464 441/687/463 
f 371/591/394 370/590/393 431/676/453 442/689/464 
f 412/637/435 370/590/393 372/593/395 365/583/388 
f 435/682/457 436/681/458 430/690/322 
f 440/686/462 441/687/463 430/690/322 
f 433/678/455 434/679/456 430/675/322 
f 438/684/460 439/685/461 430/690/322 
f 429/674/452 432/677/454 430/675/322 
f 436/681/458 437/683/459 430/690/322 
f 441/687/463 442/688/464 430/690/322 
f 431/676/453 428/673/451 430/675/322 
f 434/679/456 435/680/457 430/675/322 
f 439/685/461 440/686/462 430/690/322 
f 442/689/464 431/676/453 430/675/322 
f 432/677/454 433/678/455 430/675/322 
f 437/683/459 438/684/460 430/690/322 
f 409/691/432 414/668/437 415/642/438 383/606/406 
f 405/630/428 426/667/449 413/638/436 407/632/430 
f 403/628/426 425/665/448 426/667/449 405/630/428 
f 401/626/424 424/663/447 425/665/448 403/628/426 
f 399/624/422 423/661/446 424/663/447 401/626/424 
f 397/621/420 422/659/445 423/661/446 399/624/422 
f 395/620/418 421/656/444 422/659/445 397/621/420 
f 393/616/416 420/653/443 421/655/444 395/618/418 
f 391/614/414 419/651/442 420/653/443 393/616/416 
f 389/612/412 418/649/441 419/651/442 391/614/414 
f 387/610/410 417/647/440 418/649/441 389/612/412 
f 384/607/407 416/645/439 417/647/440 387/610/410 
f 383/606/406 415/642/438 416/645/439 384/607/407 
f 407/632/430 413/638/436 414/641/437 409/634/432 
f 358/592/381 359/672/382 427/671/450 372/593/395 
f 409/691/432 383/606/406 386/609/409 410/670/433 
# 360 polygons - 102 triangles

