# 3ds Max Wavefront OBJ Exporter v0.99 - (c)2007 guruware
# File Created: 26.04.2025 19:07:03

mtllib letrero.mtl

#
# object catel
#

v  0.1196 -0.2161 -1.7743
v  0.6328 0.1208 -1.7752
v  0.5169 -0.2130 -1.7762
v  1.0035 0.0723 -1.6350
v  0.8898 -0.2032 -1.6365
v  1.1529 0.0790 -1.6345
v  0.1132 -0.0816 -1.6356
v  0.5870 -0.2098 -1.6399
v  0.3285 -0.0879 -1.6356
v  0.2878 -0.1117 -1.6964
v  0.4197 -0.2120 -1.6819
v  0.0095 -0.2091 -1.6863
v  0.2113 -0.0983 -1.7361
v  0.1491 -0.2129 -1.7372
v  0.3116 -0.1999 -1.7355
v  1.3980 -0.2034 -1.6380
v  1.4009 0.3585 -1.6360
v  0.8087 0.3587 -1.6364
v  -0.0067 -0.2106 -1.6396
v  0.3342 0.3609 -1.7738
v  0.6587 0.2851 -1.6362
v  0.8778 0.1141 -1.6352
v  -0.0012 0.3657 -1.6374
v  0.5840 0.3669 -1.6349
v  0.8638 -0.0242 -1.6343
v  1.4043 0.0916 -1.6352
# 26 vertices

vn -0.0260 -0.3869 -0.9217
vn -0.0047 0.0095 -0.9999
vn -0.0225 -0.7299 -0.6831
vn 0.0007 0.0016 1.0000
vn -0.0062 -0.6904 0.7234
vn 0.0003 -0.0023 1.0000
vn -0.0064 -0.0136 0.9999
vn 0.0173 -0.7247 0.6889
vn -0.0006 -0.0162 0.9999
vn 0.0002 -0.0857 -0.9963
vn -0.0012 -0.7297 -0.6838
vn -0.2546 -0.2554 -0.9327
vn -0.0056 -0.0665 0.9978
vn 0.4523 -0.5986 0.6611
vn 0.0098 -0.1654 0.9862
vn 0.3147 -0.6371 0.7036
vn 0.2491 0.5161 0.8195
vn 0.0105 0.7233 0.6905
vn -0.5828 -0.6070 0.5403
vn -0.0176 0.7906 -0.6121
vn -0.0002 -0.0012 1.0000
vn 0.0001 0.0059 1.0000
vn -0.2774 0.5286 0.8023
vn 0.0129 0.7377 0.6750
vn 0.0002 -0.0065 1.0000
vn 0.7929 -0.0065 0.6093
# 26 vertex normals

vt 0.0000 0.0000 0.0000
# 1 texture coords

o catel
g catel
usemtl reja_uploads_files_1987534_Bank_02_wire_135059008
s 1
f 1/1/1 2/1/2 3/1/3 
f 4/1/4 5/1/5 6/1/6 
f 7/1/7 8/1/8 9/1/9 
f 10/1/10 11/1/11 12/1/12 
f 13/1/13 14/1/14 15/1/15 
f 6/1/6 5/1/5 16/1/16 
f 17/1/17 18/1/18 4/1/4 
f 19/1/19 8/1/8 7/1/7 
f 1/1/1 20/1/20 2/1/2 
f 7/1/7 9/1/9 21/1/21 
f 18/1/18 22/1/22 4/1/4 
f 23/1/23 21/1/21 24/1/24 
f 23/1/23 7/1/7 21/1/21 
f 25/1/25 5/1/5 4/1/4 
f 21/1/21 22/1/22 18/1/18 
f 17/1/17 6/1/6 26/1/26 
f 24/1/24 21/1/21 18/1/18 
f 9/1/9 8/1/8 25/1/25 
f 22/1/22 25/1/25 4/1/4 
f 4/1/4 6/1/6 17/1/17 
f 23/1/23 19/1/19 7/1/7 
f 6/1/6 16/1/16 26/1/26 
f 25/1/25 8/1/8 5/1/5 
f 9/1/9 25/1/25 21/1/21 
f 21/1/21 25/1/25 22/1/22 
# 0 polygons - 25 triangles

